<svg width="246" height="229" viewBox="0 0 246 229" fill="none" xmlns="http://www.w3.org/2000/svg">
<path d="M110.489 95.1976C110.478 95.1278 110.479 95.057 110.491 94.9912C110.503 94.9253 110.526 94.8662 110.559 94.8188C111.021 93.4603 112.338 91.6093 114.351 94.6438C114.437 94.7785 114.508 94.9319 114.559 95.0966L115.401 104.801L115.83 109.733L116.296 115.109C116.296 115.109 116.643 124.058 116.556 130.269C116.608 140.882 115.344 136.67 114.289 130.124C114.264 130.811 112.16 114.444 112.16 114.444L110.489 95.1976Z" fill="#1D1D1D"/>
<path d="M128.618 94.3536C128.607 94.285 128.607 94.2155 128.618 94.15C128.628 94.0846 128.649 94.0248 128.678 93.975C129.14 92.6166 130.457 90.7655 132.478 93.7998C132.558 93.9388 132.624 94.0913 132.676 94.2528L134.416 114.306C134.416 114.306 134.732 123.214 134.672 129.425C134.733 140.037 133.461 135.826 132.416 129.279C132.382 129.967 130.288 113.6 130.288 113.6L128.618 94.3536Z" fill="#1D1D1D"/>
<path d="M141.686 74.2813C141.63 74.2484 141.579 74.2038 141.536 74.1501C141.494 74.0965 141.461 74.035 141.44 73.9695C140.978 73.121 140.773 72.1553 140.858 71.2282C141.008 70.2619 141.648 69.3549 143.488 69.0992C143.648 69.0648 143.815 69.0615 143.982 69.0896C146.856 70.9055 149.584 73.0251 152.123 75.4148C159.177 82.0115 164.641 90.4476 167.912 99.7901C171.184 109.133 172.134 119.018 170.658 128.352C169.183 137.686 165.339 146.106 159.552 152.68C153.764 159.254 146.259 163.727 137.866 165.603C132.28 166.877 126.415 166.962 120.569 165.855L120.013 165.755L119.593 165.653L119.238 165.578L118.54 165.426C118.083 165.325 117.611 165.196 117.151 165.067C116.232 164.824 115.298 164.553 114.384 164.24C112.728 163.572 111.104 162.78 109.525 161.87C106.546 160.214 103.734 158.159 101.16 155.756C99.7345 154.53 98.4493 153.11 97.3405 151.536C96.7548 150.625 96.7282 150.171 97.0863 150.164C97.8272 150.15 100.043 151.58 102.769 153.137C102.692 153.001 105.802 155.006 109.275 156.494C111.555 157.47 113.882 158.253 116.235 158.837C117.033 159.11 117.847 159.301 118.641 159.533L119.91 159.812L120.206 159.806L120.536 159.882L121.006 159.983L122.909 160.291C125.449 160.674 127.989 160.764 130.488 160.557C132.998 160.42 135.469 160.041 137.872 159.424C145.078 157.457 151.451 153.298 156.309 147.39C161.168 141.482 164.33 134.047 165.458 125.878C166.587 117.709 165.639 109.112 162.716 101.007C159.794 92.9012 155.006 85.5902 148.863 79.8543C146.625 77.748 144.22 75.8804 141.686 74.2813Z" fill="#1D1D1D"/>
<path d="M92.469 143.888C92.5151 143.936 92.5518 143.995 92.576 144.058C92.6003 144.122 92.6116 144.19 92.609 144.256C92.7818 145.181 92.6789 146.11 92.3163 146.9C91.8777 147.705 90.9598 148.3 89.0812 147.801C88.9107 147.758 88.7465 147.677 88.5988 147.563C86.3896 144.805 84.406 141.843 82.6761 138.719C78.1753 130.518 75.605 121.368 75.2283 112.206C75.1649 111.644 75.0999 111.068 75.1348 110.504L75.1642 108.799L75.2644 105.431L75.6518 102.098L75.9316 100.43L76.2344 98.8578L76.9275 95.6153L77.9064 92.5046L78.3966 90.9562L79.0297 89.4736L80.299 86.536C84.0782 78.8647 89.704 72.6299 96.628 68.4391C100.08 66.3728 103.811 64.8454 107.726 63.8958L110.751 63.315C111.642 63.1262 112.551 63.0121 113.471 62.9738L114.908 62.9459C116.116 62.9248 117.332 62.9884 118.55 63.1365C121.74 63.4864 124.921 64.2837 128.015 65.5089C129.687 66.089 131.305 66.913 132.822 67.9578C133.658 68.6012 133.812 68.9829 133.499 69.1539C132.872 69.4958 130.406 69.0214 127.486 68.6795C127.785 68.8248 124.29 68.1781 120.787 68.2322C119.172 68.2184 117.573 68.3412 116.002 68.5997L113.847 68.93C113.026 68.979 112.216 69.1003 111.426 69.2929L110.22 69.5224L109.365 69.6901C108.933 69.7695 108.509 69.8833 108.098 70.0307L105.686 70.8057C104.852 71.0554 104.09 71.4962 103.339 71.8267C101.73 72.5289 100.178 73.3578 98.6936 74.3076C97.9467 74.7589 97.2307 75.2638 96.5494 75.8194C95.8237 76.3142 95.1331 76.8646 94.4821 77.4672C93.1472 78.6311 91.8962 79.9041 90.7379 81.2772C88.3776 83.9933 86.3788 87.0756 84.791 90.4476C81.6563 97.229 80.2355 104.979 80.6639 112.96C81.0922 120.941 83.3553 128.888 87.2382 136.047C88.7675 138.814 90.5192 141.44 92.469 143.888Z" fill="#1D1D1D"/>
<path d="M125.508 168.192C125.461 168.15 125.42 168.098 125.389 168.04C125.358 167.982 125.338 167.919 125.328 167.854C124.991 166.967 124.915 166.007 125.113 165.131C125.357 164.212 126.112 163.392 127.926 163.452C128.093 163.471 128.258 163.519 128.417 163.592C131.033 165.929 133.345 168.693 135.263 171.776C137.659 175.67 139.462 179.949 140.587 184.409C141.157 186.602 141.584 188.823 141.863 191.054C142.598 196.731 142.207 202.385 140.719 207.595C139.23 212.804 136.683 217.433 133.268 221.136C132.706 221.761 132.005 222.416 131.373 223.056L130.396 224.017C130.396 224.017 130.325 224.127 130.277 224.128L130.133 224.008L129.835 223.782L129.249 223.317L126.893 221.468L125.574 220.294C122.325 217.311 119.515 213.74 117.28 209.751C116.146 207.758 115.157 205.673 114.325 203.522C112.71 199.208 111.75 194.683 111.49 190.157L111.419 188.208L111.449 186.639C111.466 185.602 111.554 184.564 111.656 183.539L111.959 181.964L112.403 180.264C112.594 179.619 112.812 178.892 113.078 178.178C113.675 176.602 114.398 175.104 115.24 173.702C116.083 172.301 117.053 171.012 118.136 169.852C119.211 168.55 120.477 167.471 121.89 166.654C122.701 166.242 123.042 166.317 123.086 166.712C123.104 167.53 121.721 169.563 120.407 172.221C119.395 174.186 118.545 176.266 117.865 178.437C117.392 179.992 117.056 181.611 116.861 183.272C116.725 184.638 116.71 185.58 116.71 185.58C116.635 186.413 116.585 187.26 116.584 188.119C116.632 188.555 116.583 188.979 116.615 189.483L116.646 190.423C116.697 190.886 116.749 191.362 116.796 191.784C116.96 193.661 117.273 195.536 117.731 197.385C118.179 199.234 118.776 201.049 119.516 202.805C120.221 204.55 121.071 206.228 122.052 207.815C123.018 209.445 124.11 210.981 125.315 212.401C126.508 213.838 127.804 215.159 129.186 216.348L129.501 216.615L129.966 216.087C134.385 211.015 136.884 204.105 137.012 196.606C137.048 194.736 136.932 192.849 136.667 190.966C136.427 189.063 136.056 187.169 135.558 185.3C134.615 181.626 133.116 178.104 131.133 174.9C129.56 172.368 127.66 170.103 125.508 168.192Z" fill="#1D1D1D"/>
<path d="M197.792 184.181C197.851 184.173 197.912 184.177 197.971 184.195C198.031 184.213 198.088 184.243 198.139 184.285C198.92 184.714 199.579 185.399 200.015 186.234C200.446 187.177 200.496 188.39 199.183 189.863C199.071 189.989 198.934 190.085 198.78 190.146C193.004 190.687 187.037 189.572 181.445 186.908C175.853 184.243 170.821 180.116 166.825 174.919C163.943 171.186 161.655 166.972 160.077 162.488C159.303 160.241 158.697 157.947 158.266 155.629C158.135 154.473 157.892 153.32 157.796 152.15C157.73 151.572 157.665 150.994 157.599 150.416L157.501 149.549C157.471 149.288 157.46 148.64 157.481 148.171L157.506 144.999L157.461 144.6C157.452 144.518 157.672 144.596 157.762 144.512L158.469 144.388L159.873 144.154L161.277 143.92L162.248 143.819C162.769 143.809 163.278 143.689 163.801 143.692C165.869 143.578 167.962 143.681 170.055 143.999C172.164 144.293 174.265 144.811 176.326 145.547C178.393 146.271 180.414 147.202 182.363 148.326C186.262 150.559 189.832 153.518 192.895 157.058L193.425 157.668L193.684 157.981L194.178 158.605C194.512 159.026 194.846 159.447 195.156 159.883C195.79 160.753 196.388 161.637 196.971 162.605C197.921 164.336 198.741 166.137 199.423 167.99C200.061 169.708 200.581 171.464 200.977 173.241C201.365 175.033 201.608 176.842 201.703 178.646C201.9 180.56 201.809 182.463 201.435 184.277C201.189 185.288 200.902 185.5 200.644 185.202C200.088 184.578 199.63 181.857 198.665 178.732C197.971 176.347 197.119 174.003 196.115 171.722C195.376 170.088 194.514 168.512 193.541 167.014C193.135 166.402 192.815 165.884 192.553 165.544L192.155 165C191.695 164.237 191.144 163.545 190.664 162.823L189.836 161.777L189.633 161.519C189.633 161.519 189.546 161.411 189.448 161.316L189.206 161.045L188.249 159.96C186.912 158.559 185.488 157.263 183.991 156.085C181.057 153.778 177.83 152.019 174.457 150.891C172.731 150.367 170.984 149.999 169.233 149.792C167.486 149.594 165.742 149.568 164.025 149.713L163.044 149.732L163.071 149.966C163.358 157.723 166.197 165.406 171.063 171.588C175.929 177.771 182.489 182.032 189.527 183.582C192.285 184.198 195.066 184.4 197.792 184.181Z" fill="#1D1D1D"/>
<path d="M213.787 102.282C213.684 102.284 213.636 102.2 213.521 101.99C212.995 101.18 212.701 100.235 212.683 99.2928C212.735 98.2884 213.284 97.2322 215.188 96.7578C215.36 96.7269 215.538 96.7235 215.716 96.7477C218.905 98.3736 221.913 100.462 224.65 102.951C225.513 103.726 226.343 104.558 227.149 105.405L227.738 106.044L228.063 106.405L228.586 107.031C229.273 107.852 229.961 108.687 230.624 109.522L231.136 110.162C231.136 110.162 231.147 110.261 231.154 110.317L231.056 110.475L230.874 110.803L230.144 112.075L229.416 113.361C229.192 113.775 228.863 114.276 228.764 114.419C228.186 115.334 227.561 116.18 226.911 117.026C225.585 118.679 224.121 120.192 222.533 121.547C220.93 122.888 219.212 124.07 217.397 125.079C211.901 128.064 205.604 129.289 199.166 128.626C192.727 127.963 186.385 125.436 180.802 121.31C178.953 119.938 177.199 118.406 175.56 116.732L174.368 115.441L173.969 114.996C173.806 114.816 173.626 114.593 173.46 114.384L172.427 113.132L171.407 111.879L171.14 111.574C171.05 111.462 170.935 111.365 171.103 111.249L171.481 110.62L172.836 108.051C172.964 107.822 173.085 107.636 173.205 107.45L173.447 107.092L173.899 106.419C174.181 105.962 174.522 105.559 174.833 105.13C175.456 104.27 176.164 103.479 176.86 102.688C178.297 101.156 179.862 99.7693 181.538 98.5434L183.034 97.5398L184.237 96.7961C185.071 96.3139 185.952 95.9014 186.819 95.4892L188.259 95.0095C189.491 94.6482 190.751 94.3741 192.031 94.1887C195.352 93.6567 198.794 93.7585 202.208 94.4895C204.012 94.8002 205.79 95.4099 207.48 96.2969C208.396 96.8589 208.594 97.2367 208.296 97.4543C207.688 97.8758 205.114 97.6845 202.145 97.8683C199.878 98.0121 197.641 98.3381 195.453 98.8437C193.891 99.2541 192.372 99.7932 190.908 100.457L189.496 101.176C189.155 101.352 188.964 101.483 188.964 101.483C188.244 101.836 187.537 102.188 186.853 102.625C186.498 102.814 186.157 103.028 185.831 103.267L185.113 103.747C184.753 103.98 184.438 104.268 184.082 104.529C182.725 105.596 181.475 106.807 180.347 108.148C179.765 108.795 179.223 109.582 178.732 110.242L178.05 111.258L178.949 112.244C179.273 112.592 179.633 112.924 179.969 113.271C184.155 117.338 189.144 120.232 194.426 121.659C199.706 123.095 205.091 123.017 210.036 121.434C214.981 119.85 219.309 116.817 222.58 112.643L223.373 111.582L224.11 110.48L224.165 110.394L223.412 109.56C222.739 108.867 222.054 108.173 221.335 107.523C219.023 105.418 216.481 103.654 213.787 102.282Z" fill="#1D1D1D"/>
<path d="M189.677 39.7492C189.658 39.683 189.654 39.6147 189.664 39.5497C189.674 39.4846 189.698 39.4248 189.734 39.3751C190.039 38.5494 190.596 37.8877 191.32 37.4934C192.125 37.1049 193.234 37.1803 194.724 38.7405C194.857 38.8775 194.964 39.04 195.041 39.2179C196.188 45.6786 195.836 52.1768 194.02 58.098C192.203 64.0193 188.981 69.1682 184.659 73.0578C179.989 77.2834 174.196 79.8717 167.924 80.5354C166.884 80.6244 165.833 80.7274 164.781 80.7062C164.257 80.7163 163.733 80.7263 163.209 80.7364L162.424 80.7514C162.224 80.7553 161.738 80.7646 161.237 80.6499L158.332 80.2773L157.971 80.2843L157.796 80.2876C157.734 80.2888 157.659 80.2903 157.66 80.1935L157.471 79.4097L157.103 77.828L156.736 76.2463C156.706 75.9843 156.677 75.7362 156.576 75.5033L156.523 75.0346C156.457 74.4556 156.291 73.8785 156.225 73.2996C155.896 70.9955 155.758 68.6858 155.814 66.3997C155.886 59.3443 157.786 52.6705 161.295 47.1463C162.434 45.3339 163.742 43.6663 165.203 42.1669L165.692 41.6325L165.952 41.3926L166.473 40.9129C166.823 40.5884 167.16 40.2504 167.538 39.953C168.275 39.335 169.044 38.7623 169.843 38.2371C172.706 36.5528 175.855 35.4283 179.163 34.9083C180.761 34.6639 182.392 34.5817 184.035 34.6629C185.776 34.6561 187.536 34.9582 189.249 35.5575C190.205 35.9398 190.432 36.2808 190.186 36.5342C189.675 37.0967 187.236 37.3092 184.456 38.0257C182.346 38.5537 180.291 39.2534 178.307 40.1194C176.869 40.7616 175.499 41.546 174.211 42.4637C173.691 42.8329 173.264 43.145 172.981 43.3991L172.524 43.7809C171.887 44.2214 171.296 44.7439 170.686 45.1977L169.815 46.0019L169.6 46.1995L169.21 46.6214C168.922 46.9447 168.606 47.2409 168.319 47.578C166.015 50.2154 164.207 53.3383 162.982 56.7986C161.153 62.0096 160.713 67.8258 161.712 73.6225L161.821 74.5875L162.146 74.5813C169.246 75.0737 175.989 72.7246 181.121 67.9707C186.254 63.2168 189.427 56.3817 190.051 48.7358C190.293 45.7788 190.167 42.7563 189.677 39.7492Z" fill="#1D1D1D"/>
<path d="M129.801 40.2884C129.799 40.2227 129.808 40.1585 129.828 40.0995C129.848 40.0406 129.878 39.9882 129.918 39.9454C130.352 39.251 130.986 38.7604 131.727 38.5466C132.557 38.3528 133.594 38.6455 134.769 40.4208C134.859 40.587 134.931 40.7645 134.98 40.948C134.994 44.4866 134.577 47.9574 133.741 51.2611C132.664 55.3683 130.935 59.1446 128.634 62.4147C128.066 63.2244 127.455 63.9918 126.804 64.7134L126.321 65.2681L126.037 65.5872C125.889 65.7537 125.752 65.9063 125.592 66.0594L123.694 67.9507L123.214 68.4236C123.147 68.5748 123.037 68.4271 122.944 68.3336L122.659 68.1076L121.508 67.204L120.358 66.3004L119.835 65.8475L119.418 65.4879C118.609 64.7955 117.819 64.0482 117.062 63.2865C110.895 57.0585 106.642 48.7479 105.064 39.843C103.485 30.9382 104.685 22.0208 108.449 14.6878C109.377 12.8696 110.463 11.1735 111.69 9.62188C111.984 9.21802 112.297 8.83423 112.629 8.47208L113.112 7.91734C113.259 7.75087 113.616 7.33493 113.928 7.05615L115.816 5.17877L116.05 4.94243L116.178 4.81722C116.178 4.81722 116.268 4.88356 116.319 4.90981L116.886 5.34815L118.037 6.25178L119.085 7.07571C119.265 7.20838 119.434 7.35488 119.604 7.50139L120.269 8.07405C120.647 8.39354 121.017 8.75407 121.386 9.10099C122.136 9.79461 122.832 10.5438 123.54 11.2928L124.538 12.6355C125.346 13.7294 126.102 14.87 126.802 16.0515C128.639 19.1443 130.035 22.5171 130.928 26.0257C131.474 27.8729 131.757 29.7778 131.768 31.6641C131.729 32.7142 131.527 33.0316 131.227 32.7651C130.594 32.2736 129.71 29.7021 128.216 26.843C127.128 24.6563 125.907 22.5489 124.561 20.5387C123.564 19.1155 122.48 17.7705 121.32 16.5154C120.829 16.021 120.428 15.593 120.137 15.3126L119.675 14.8722C119.098 14.2432 118.48 13.6696 117.872 13.0822L116.984 12.3096L116.554 12.8088C116.013 13.4155 115.503 14.058 115.026 14.7334C114.069 16.0819 113.219 17.5299 112.484 19.0631C109.566 25.2802 108.762 32.7115 110.213 40.0693C111.663 47.4271 115.277 54.2477 120.427 59.3492C120.756 59.6561 121.064 59.9906 121.392 60.2838L122.293 61.0698L123.019 60.2513C123.528 59.6006 124.062 58.9767 124.506 58.2729C126.39 55.5458 127.811 52.4151 128.709 49.0179C129.428 46.2225 129.796 43.2853 129.801 40.2884Z" fill="#1D1D1D"/>
<path d="M93.9484 75.1634C93.9892 75.215 94.0197 75.2751 94.0376 75.339C94.0554 75.403 94.0601 75.4691 94.0513 75.5322C94.152 76.4486 93.9908 77.3458 93.5906 78.0952C93.0993 78.86 92.1527 79.4002 90.272 78.7364C90.1088 78.6683 89.9532 78.5741 89.8106 78.457C87.7494 75.4656 86.0473 72.2122 84.7539 68.7917C81.9127 61.2862 81.1646 53.2331 82.6135 45.7498C82.9745 43.897 83.4654 42.0926 84.0819 40.3522C84.1828 40.0481 84.3449 39.633 84.51 39.2453L84.9796 38.069L85.4506 36.9064L85.6923 36.3249C85.6814 36.229 85.7534 36.104 85.8208 36.0478L86.112 36.1246L88.5091 36.7921C89.2677 36.9834 90.2594 37.28 90.5307 37.3983C95.7672 39.1546 100.694 42.1991 104.923 46.2919C104.923 46.2919 105.342 46.737 106.009 47.5342L107.166 48.9674L108.522 50.8635C110.563 53.889 112.182 57.2105 113.315 60.6987C113.963 62.5336 114.348 64.4415 114.455 66.3479C114.453 67.419 114.241 67.7252 113.921 67.498C113.291 67.0296 112.184 64.5106 110.576 61.6856C109.333 59.5508 107.973 57.4946 106.504 55.5303C105.386 54.1431 104.18 52.8442 102.897 51.6455C102.397 51.1334 101.927 50.7718 101.624 50.4893L101.135 50.0731C100.081 49.1072 98.9788 48.2112 97.8356 47.3907C95.2328 45.4959 92.4193 44.0397 89.4993 43.0758L89.1422 42.9592C88.6192 44.4274 88.2034 45.9505 87.8984 47.5148C86.6373 53.8353 87.246 60.6521 89.6391 67.0079C90.7424 69.8975 92.1931 72.6431 93.9484 75.1634Z" fill="#1D1D1D"/>
<path d="M130.878 64.4522C130.892 64.5758 130.896 64.617 130.728 64.7716C130.207 65.4266 129.496 65.8635 128.693 66.0218C127.826 66.1211 126.727 65.702 125.67 63.796C125.584 63.6275 125.522 63.4474 125.486 63.2629C125.79 59.7445 126.546 56.3441 127.732 53.1607C130.334 46.1689 134.944 40.4864 140.92 36.9029C142.42 36.0204 143.988 35.2681 145.613 34.6519C145.884 34.5365 146.29 34.4049 146.66 34.2876L147.855 33.9205L148.976 33.5549L149.55 33.3787C149.642 33.3578 149.738 33.3559 149.834 33.3732L150.015 33.6587L151.513 35.969C151.99 36.689 152.571 37.6686 152.713 37.941C154.702 41.4031 156.221 45.1294 157.216 48.9861C157.731 50.9547 158.101 52.9496 158.324 54.9504C158.324 54.9504 158.393 55.5683 158.387 56.6004C158.444 57.1084 158.378 57.7289 158.369 58.4171L158.012 60.6119C157.669 64.1249 156.796 67.4888 155.428 70.5692C154.752 72.2388 153.825 73.7481 152.681 75.0393C151.992 75.7268 151.636 75.7475 151.48 75.3514C151.266 74.5575 152.037 72.0795 152.594 69.0277C153 66.6786 153.271 64.2884 153.405 61.8705C153.424 60.1286 153.324 58.3735 153.108 56.6198C153.027 55.9058 152.89 55.248 152.838 54.8912L152.765 54.2459C152.562 52.7981 152.279 51.356 151.917 49.9278C151.073 46.6776 149.792 43.5371 148.118 40.6167L147.903 40.2493L147.829 40.2507C146.471 40.7686 145.162 41.4057 143.914 42.1565C140.259 44.3678 137.193 47.5171 134.942 51.3715C132.691 55.2259 131.314 59.6868 130.911 64.424L130.878 64.4522Z" fill="#1D1D1D"/>
<path d="M192.662 80.8478C192.662 80.8478 192.652 80.7647 192.824 80.7198C193.668 80.4207 194.601 80.4126 195.507 80.6966C196.412 80.9805 197.249 81.5439 197.911 82.3153C197.99 82.4068 198.05 82.5149 198.086 82.6311C197.808 84.1927 197.431 85.7203 196.957 87.2036C195.959 90.3467 194.565 93.2847 192.813 95.9406C191.056 98.5647 188.959 100.882 186.578 102.831C185.506 103.722 184.372 104.527 183.185 105.24L182.51 105.517L180.785 106.091C179.241 106.534 177.635 106.77 175.999 106.793C173.407 106.842 172.546 106.262 172.642 105.664C172.737 105.065 173.741 104.255 174.922 103.553C174.771 103.556 176.258 102.778 177.662 101.822C178.366 101.364 179.034 100.81 179.529 100.398C180.024 99.9866 180.346 99.7169 180.346 99.7169C181.333 99.118 182.27 98.437 183.152 97.6792C185.114 96.0607 186.841 94.1379 188.285 91.9618C189.739 89.7496 190.892 87.301 191.714 84.6815C192.114 83.4392 192.431 82.1582 192.662 80.8478Z" fill="#1D1D1D"/>
<path d="M163.507 83.4933C163.455 83.5243 163.396 83.541 163.335 83.5422C163.274 83.5433 163.212 83.529 163.153 83.5002C162.275 83.5162 161.385 83.2136 160.615 82.6373C159.819 81.976 159.185 80.7672 159.61 78.596C159.66 78.4104 159.733 78.2357 159.827 78.0768C162.487 75.9601 165.442 74.3029 168.606 73.1536L169.087 72.9971C170.859 72.3876 172.688 71.9437 174.555 71.6695C176.382 71.5223 178.235 71.5552 180.092 71.7677C181.813 71.9643 183.532 72.3097 185.234 72.8006C186.945 73.3037 188.629 73.9752 190.263 74.8067C192.027 75.5916 193.696 76.6771 195.204 78.0211C196.015 78.8145 196.127 79.2243 195.775 79.3636C195.058 79.6424 192.502 78.7358 189.439 78.1039C187.105 77.6333 184.761 77.3495 182.427 77.2545C180.748 77.2157 179.084 77.3366 177.454 77.6161C176.799 77.7466 176.166 77.8325 175.863 77.9413L175.263 78.0854C173.917 78.3291 172.597 78.6693 171.308 79.104L170.906 79.259C168.237 80.2586 165.747 81.6836 163.507 83.4933Z" fill="#1D1D1D"/>
<path d="M172.873 119.737C172.76 119.74 172.71 119.741 172.559 119.522C171.895 118.874 171.413 118.035 171.179 117.124C170.99 116.131 171.257 114.948 172.893 113.975C173.047 113.905 173.21 113.855 173.379 113.827C178.626 114.983 183.696 117.391 188.214 120.874C192.732 124.357 196.584 128.826 199.485 133.952C200.466 135.725 201.336 137.56 202.086 139.443C202.222 139.759 202.387 140.213 202.538 140.653L203 141.947L203.464 143.254L203.688 143.9C203.717 144.005 203.729 144.113 203.725 144.218L203.48 144.389L201.506 145.812C200.892 146.267 200.05 146.823 199.801 146.953C196.819 148.795 193.539 150.083 190.081 150.768C188.315 151.129 186.509 151.326 184.681 151.356C184.681 151.356 184.116 151.367 183.16 151.247L181.476 151.03L179.367 150.613C176.077 149.841 172.867 148.499 169.863 146.639C168.241 145.698 166.741 144.492 165.42 143.067C164.709 142.236 164.649 141.822 164.999 141.69C165.712 141.552 168.077 142.67 170.977 143.626C173.181 144.321 175.409 144.861 177.647 145.244C179.258 145.461 180.869 145.541 182.464 145.484C183.128 145.471 183.718 145.46 184.057 145.453L184.646 145.442C185.964 145.369 187.268 145.205 188.549 144.952C191.465 144.36 194.232 143.27 196.752 141.72L197.07 141.534L197.061 141.451C196.429 139.872 195.695 138.335 194.864 136.853C191.546 130.834 186.688 125.908 180.974 122.768C178.376 121.363 175.649 120.343 172.873 119.737Z" fill="#1D1D1D"/>
<path d="M152.647 153.665C152.614 153.606 152.593 153.541 152.585 153.474C152.578 153.408 152.584 153.342 152.603 153.282C152.503 152.363 152.669 151.465 153.076 150.718C153.555 149.954 154.514 149.413 156.395 150.077C156.554 150.146 156.706 150.24 156.844 150.357C158.914 153.342 160.617 156.597 161.901 160.022C164.746 167.526 165.498 175.579 164.053 183.064C163.685 184.916 163.19 186.72 162.573 188.461C162.456 188.842 162.317 189.211 162.157 189.568L161.687 190.744L161.204 191.907L160.976 192.502C160.944 192.597 160.9 192.685 160.846 192.766L160.543 192.689L158.159 192.035C157.388 191.844 156.408 191.533 156.138 191.429C152.678 190.276 149.343 188.553 146.25 186.32C144.669 185.183 143.162 183.913 141.744 182.521C141.744 182.521 141.313 182.077 140.646 181.279L139.489 179.846L138.147 177.964C136.096 174.939 134.476 171.611 133.352 168.115C132.704 166.28 132.319 164.372 132.212 162.466C132.202 161.395 132.414 161.089 132.736 161.329C133.376 161.784 134.472 164.317 136.081 167.142C137.339 169.269 138.702 171.324 140.164 173.297C141.266 174.679 142.451 175.978 143.71 177.183C144.209 177.681 144.679 178.043 144.981 178.325L145.472 178.755C146.523 179.72 147.621 180.616 148.759 181.438C151.367 183.317 154.178 184.768 157.094 185.739L157.465 185.869L157.456 185.787C157.968 184.313 158.383 182.791 158.699 181.231C159.908 174.92 159.273 168.135 156.881 161.809C155.798 158.929 154.373 156.188 152.647 153.665Z" fill="#1D1D1D"/>
<path d="M115.717 164.473C115.701 164.336 115.697 164.295 115.878 164.153C116.382 163.482 117.094 163.042 117.901 162.904C118.779 162.79 119.877 163.209 120.934 165.115C121.016 165.29 121.074 165.474 121.107 165.662C120.624 171.27 118.988 176.549 116.319 181.109C113.65 185.669 110.016 189.393 105.687 192.007C104.189 192.892 102.621 193.645 100.995 194.258C100.655 194.402 100.305 194.523 99.948 194.622L98.827 194.988L97.6319 195.355L97.0722 195.544C96.9791 195.557 96.884 195.559 96.7884 195.55L96.6077 195.264L95.1112 192.968C94.6325 192.234 94.0533 191.268 93.9097 190.982C91.9254 187.52 90.4107 183.793 89.4201 179.938C88.9045 177.969 88.534 175.974 88.3125 173.974C88.3125 173.974 88.2426 173.356 88.251 172.337C88.2537 171.814 88.2594 171.209 88.2542 170.507C88.249 169.806 88.3703 169.129 88.4066 168.248C88.7631 164.74 89.6352 161.378 90.9899 158.291C91.6649 156.617 92.5968 155.107 93.7488 153.821C94.4269 153.147 94.7956 153.127 94.9501 153.509C95.1528 154.317 94.3928 156.781 93.8354 159.832C93.4805 162.174 93.2624 164.554 93.1825 166.958C93.1672 168.701 93.2707 170.455 93.4921 172.209C93.5728 172.923 93.6474 173.582 93.6878 173.939L93.7624 174.598C93.9629 176.041 94.2495 177.479 94.6203 178.901C95.459 182.153 96.7407 185.294 98.419 188.212L98.6214 188.58L98.6954 188.578C100.054 188.057 101.367 187.424 102.624 186.686C107.653 183.656 111.531 178.865 113.723 172.974C114.755 170.3 115.426 167.439 115.717 164.473Z" fill="#1D1D1D"/>
<path d="M83.2065 146.25C83.252 146.209 83.3061 146.179 83.3653 146.164C83.4245 146.148 83.4874 146.147 83.5498 146.16C84.3948 146.155 85.2489 146.439 85.9925 146.974C86.7603 147.613 87.3693 148.74 86.9599 150.789C86.9116 150.967 86.8368 151.133 86.7381 151.28C84.1825 153.277 81.343 154.841 78.3023 155.927C71.6208 158.311 64.1957 158.273 57.0572 155.819C55.2902 155.205 53.5534 154.454 51.861 153.571C51.5662 153.423 51.1485 153.195 50.7687 152.966L49.6322 152.308L48.4958 151.649L47.9141 151.313C47.8385 151.314 47.714 151.219 47.654 151.137L47.6931 150.817L48.036 148.185C48.1298 147.35 48.3085 146.264 48.376 145.971C49.4149 140.244 51.711 135.014 55.0777 130.704C55.0777 130.704 55.4444 130.267 56.115 129.615L57.3225 128.467L58.9267 127.145C61.5248 125.173 64.4455 123.71 67.5755 122.813C69.2141 122.282 70.9501 122.057 72.7157 122.145C73.7146 122.265 74.0236 122.537 73.8333 122.86C73.481 123.533 71.243 124.507 68.7882 126.012C66.9384 127.184 65.173 128.493 63.5026 129.932C62.3442 131.028 61.2695 132.223 60.287 133.507C59.8778 134.015 59.593 134.507 59.3633 134.817L59.0171 135.323C58.2376 136.406 57.5246 137.546 56.8821 138.739C55.4176 141.478 54.3785 144.497 53.8017 147.686L53.7201 148.077L53.7957 148.075C61.0048 151.897 69.0016 152.627 76.0697 150.108C78.6419 149.22 81.0449 147.921 83.2065 146.25Z" fill="#1D1D1D"/>
<path d="M73.7111 109.175C73.7723 109.185 73.8321 109.209 73.8863 109.247C73.9406 109.284 73.9879 109.333 74.0249 109.39C74.6944 110.033 75.1785 110.874 75.4051 111.788C75.5941 112.782 75.3395 113.964 73.6909 114.938C73.5399 115.016 73.3759 115.066 73.2049 115.085C69.9179 114.359 66.6904 113.143 63.6155 111.473C56.8545 107.802 51.0849 102.03 47.1085 94.9588C46.1211 93.1889 45.2516 91.3532 44.5074 89.4677C44.3383 89.0708 44.1872 88.6668 44.0549 88.2573L43.5833 86.8811L43.1355 85.7122L42.8966 85.0519C42.8578 84.948 42.8247 84.8422 42.7976 84.7352L43.0546 84.5641L45.0165 83.1413C45.6307 82.6863 46.4738 82.1437 46.723 82.0143C49.7071 80.1628 52.9912 78.8705 56.4552 78.1849C58.2198 77.8374 60.0237 77.6546 61.8485 77.6384C61.8485 77.6384 62.4254 77.6274 63.3695 77.7478L65.0661 77.9647L67.1754 78.3815C70.4657 79.1506 73.6765 80.493 76.6804 82.3553C78.301 83.2927 79.8007 84.4941 81.1222 85.9134C81.8223 86.7589 81.8806 87.1595 81.5311 87.2908C80.8178 87.4292 78.4524 86.3108 75.565 85.3549C73.3589 84.6702 71.1309 84.1299 68.8936 83.7371C67.2785 83.5262 65.6642 83.446 64.0641 83.4971C63.4119 83.5096 62.8098 83.5211 62.4932 83.6103L61.8911 83.6218C60.5769 83.6908 59.2768 83.8499 57.9983 84.098C55.0815 84.6876 52.3144 85.7777 49.7943 87.3302L49.4778 87.5302L49.4873 87.6131C50.1173 89.1857 50.847 90.718 51.6705 92.198C55.0256 98.1498 59.8856 103.009 65.5788 106.103C68.1823 107.535 70.9211 108.569 73.7111 109.175Z" fill="#1D1D1D"/>
<path d="M56.4288 67.2826C56.4755 67.3313 56.5126 67.39 56.5372 67.4541C56.5618 67.5182 56.5733 67.5861 56.5707 67.6526C56.7606 68.5725 56.6688 69.5028 56.3099 70.2941C55.8812 71.1305 54.9854 71.6999 53.0543 71.2815C52.8826 71.2336 52.717 71.1526 52.5655 71.0424C47.2773 64.6279 43.8553 56.715 42.8151 48.4954C42.6866 47.366 42.5565 46.2228 42.5151 45.0917L42.477 44.0986C42.4221 43.6165 42.473 43.0772 42.4773 42.5664L42.4869 41.0064L42.4863 40.2335L42.4424 39.8478C42.4298 39.7376 42.4063 39.531 42.5464 39.5559L45.2999 39.0889C45.7604 39.0801 46.2395 38.9052 46.6487 38.8836L47.4623 38.7989C48.4704 38.6691 49.5066 38.6768 50.5257 38.6434C58.858 38.6596 67.2304 42.0001 74.1007 48.0495C80.9711 54.099 85.8766 62.4499 87.9138 71.5641C88.4133 73.817 88.7348 76.0926 88.8747 78.3645L88.9096 79.2197C88.9331 79.4263 88.988 79.9084 88.937 80.4477L88.9147 83.5401L88.9153 84.3131C88.9263 84.4095 88.9279 84.4232 88.8158 84.4254L88.6416 84.4287L88.2931 84.4354L86.9225 84.6688L85.5396 84.9024C85.1133 84.9935 84.5564 85.0318 84.3852 85.0627L83.3367 85.1656L82.6148 85.1795C82.1418 85.1886 81.6564 85.1979 81.1834 85.207C80.225 85.2254 79.2666 85.2438 78.3018 85.0967C76.5425 84.8348 74.7909 84.4066 73.0668 83.817C69.8369 82.7377 66.7407 81.0744 63.9127 78.8994C62.3768 77.8153 60.9861 76.4805 59.7957 74.9479C59.1587 74.0629 59.1163 73.5806 59.4772 73.5736C60.2146 73.4767 62.4843 74.8962 65.2889 76.0846C67.4201 77.0012 69.5906 77.762 71.785 78.3616C73.3776 78.7513 74.9827 78.9974 76.5839 79.0976C77.2311 79.0852 77.838 79.1563 78.1616 79.1501L78.759 79.1386C80.3411 79.2536 81.9149 79.2234 83.4639 79.0482L83.3636 78.1668C83.3088 77.6847 83.2555 77.2164 83.2069 76.7894C83.0383 74.9028 82.707 73.0187 82.2174 71.1628C80.2873 63.6666 76.0589 56.8814 70.2839 52.0134C64.5088 47.1454 57.5614 44.5101 50.6768 44.576C49.818 44.5925 48.9716 44.6088 48.2 44.734L47.8639 44.7405L47.958 45.5669C48.0645 46.5035 48.0855 47.4555 48.2714 48.3216C48.7817 52.0929 49.8798 55.8085 51.5166 59.302C52.8323 62.1605 54.4855 64.8464 56.4288 67.2826Z" fill="#1D1D1D"/>
<path d="M67.563 118.924C67.5947 118.87 67.6383 118.826 67.6906 118.796C67.7428 118.765 67.8022 118.75 67.864 118.75C68.6778 118.462 69.5888 118.499 70.4443 118.855C71.3416 119.288 72.1688 120.23 72.2796 122.423C72.2856 122.614 72.2591 122.8 72.2016 122.973C68.7078 127.883 64.0257 131.612 58.5914 133.812C53.157 136.012 47.1471 136.611 41.1214 135.554C38.9649 135.162 36.823 134.577 34.7182 133.805C32.621 133 30.5705 132.012 28.5878 130.854C26.632 129.643 24.7557 128.267 22.9785 126.739C22.0954 125.981 21.2202 125.182 20.3915 124.339C19.9651 123.931 19.5558 123.502 19.1651 123.054L18.3765 122.337C18.0366 121.95 17.6775 121.506 17.3344 121.09L16.2906 119.83L15.768 119.192L15.513 118.874L15.3928 118.721C15.4107 118.658 15.4388 118.601 15.4759 118.551L16.9632 115.961C17.2223 115.534 17.4654 115.079 17.7197 114.722L18.1676 114.038C18.4619 113.582 18.7707 113.14 19.0954 112.726C20.3665 110.973 21.8042 109.376 23.3886 107.958C26.5446 105.123 30.2181 103.002 34.2263 101.701C38.2287 100.399 42.4945 99.9272 46.8172 100.307L47.5475 100.293L47.9641 100.454L48.7089 100.567C49.2067 100.618 49.7045 100.697 50.2002 100.806L51.6852 101.101L53.1559 101.495C56.565 102.708 59.8286 104.5 62.8182 106.8C64.2693 107.92 65.6379 109.17 66.9072 110.535C68.3103 111.918 69.5216 113.515 70.4941 115.266C70.9946 116.269 70.963 116.664 70.6554 116.67C69.8867 116.685 67.7709 114.811 65.1011 113.032C63.0558 111.68 60.9357 110.488 58.7588 109.466C57.1852 108.737 55.5713 108.151 53.9347 107.714C53.2603 107.544 52.7044 107.4 52.312 107.337L51.6952 107.222C50.8846 106.984 50.0484 106.86 49.2347 106.706L48.0077 106.533L47.7002 106.538L47.1236 106.549L45.8294 106.461C44.0453 106.409 42.2748 106.504 40.533 106.745C38.8028 107.039 37.1105 107.48 35.4714 108.066C33.8531 108.694 32.2975 109.467 30.819 110.378C29.3109 111.286 27.8899 112.339 26.571 113.527C25.3359 114.76 24.2028 116.109 23.1821 117.56L22.4943 118.614L23.421 119.638C23.756 119.983 24.1167 120.328 24.4645 120.673C25.1586 121.35 25.9071 122.053 26.6396 122.616C31.1678 126.314 36.3973 128.726 41.7858 129.603C49.0127 130.805 56.1169 129.171 61.8023 125.001C64.0029 123.308 65.9417 121.263 67.563 118.924Z" fill="#1D1D1D"/>
<path d="M84.8257 155.448C84.8136 155.381 84.8135 155.313 84.8255 155.249C84.8375 155.185 84.8613 155.125 84.8955 155.073C85.217 154.258 85.783 153.607 86.5092 153.219C87.318 152.858 88.4297 152.961 89.909 154.535C90.0369 154.673 90.1405 154.836 90.2134 155.013C90.7917 158.611 90.9174 162.226 90.587 165.754C89.9174 172.574 87.5306 178.861 83.6847 183.934C79.8388 189.007 74.6803 192.673 68.767 194.536C66.7825 195.131 64.7388 195.539 62.6566 195.758C61.6089 195.778 60.5738 195.909 59.5215 195.887C59.0101 195.897 58.4863 195.907 57.953 195.835L57.1673 195.85C56.7682 195.857 56.2567 195.757 55.7749 195.697L52.8842 195.338L52.7096 195.341C52.7096 195.341 52.6954 195.217 52.6892 195.162L52.6452 194.776L52.4543 193.978L52.0882 192.41L51.7237 190.856L51.5451 189.837C51.4807 189.272 51.3275 188.695 51.2615 188.116C50.9383 185.811 50.809 183.501 50.8754 181.216C50.9273 178.923 51.1808 176.666 51.6323 174.473C52.0557 172.232 52.6885 170.068 53.5212 168.013C55.1358 163.95 57.4515 160.328 60.3534 157.327L60.8441 156.806L61.1027 156.552L61.623 156.073C61.9735 155.748 62.31 155.41 62.6902 155.127C63.4084 154.519 64.1547 153.938 64.993 153.397C66.4753 152.528 68.0368 151.81 69.6606 151.249C71.1662 150.716 72.7229 150.326 74.3149 150.082C75.917 149.837 77.5517 149.755 79.1992 149.836C80.9366 149.826 82.6948 150.133 84.4024 150.745C85.3585 151.127 85.5832 151.454 85.3387 151.722C84.8262 152.27 82.3756 152.483 79.6089 153.213C77.4475 153.704 75.3436 154.386 73.3167 155.254C71.8998 155.909 70.5473 156.698 69.2729 157.611C68.7541 157.994 68.3147 158.307 68.0436 158.561L67.5856 158.929C66.9374 159.383 66.347 159.906 65.7471 160.345L64.8762 161.15L64.6628 161.361L64.2718 161.769C63.9837 162.092 63.6675 162.389 63.3933 162.725C62.2547 164.021 61.2236 165.427 60.3099 166.929C59.4332 168.472 58.6786 170.104 58.0533 171.808C57.4634 173.528 57.002 175.31 56.6733 177.139C56.3849 178.984 56.2358 180.867 56.2273 182.771C56.2431 184.682 56.4037 186.606 56.7076 188.523L56.9159 189.693L57.0281 189.691C64.0822 190.229 70.8029 187.967 75.9593 183.319C81.1157 178.671 84.3628 171.948 85.1059 164.381C85.3871 161.448 85.2929 158.442 84.8257 155.448Z" fill="#1D1D1D"/>
</svg>
