<svg width="231" height="231" viewBox="0 0 231 231" fill="none" xmlns="http://www.w3.org/2000/svg">
<path d="M160.851 115.651C160.849 115.585 160.861 115.519 160.886 115.457C160.911 115.395 160.949 115.34 160.997 115.294C161.501 114.516 162.247 113.926 163.12 113.615C164.065 113.328 165.235 113.516 166.499 115.145C166.601 115.296 166.681 115.461 166.738 115.634L166.723 118.213C166.763 119.062 166.573 119.922 166.505 120.776L166.233 123.34C166.152 124.208 165.907 125.044 165.757 125.888C163.45 137.491 157.227 147.951 148.13 155.516C139.034 163.08 127.616 167.292 115.786 167.445C103.956 167.599 92.4317 163.685 83.142 156.359C73.8523 149.033 67.3603 138.738 64.7522 127.198C62.1442 115.659 63.5782 103.573 68.8145 92.9638C74.0508 82.3546 82.7716 73.8655 93.5178 68.9167C104.264 63.968 116.384 62.8597 127.849 65.7775C139.315 68.6952 149.431 75.462 156.504 84.9455L159.216 88.9511C159.729 89.8184 160.19 90.7286 160.689 91.5831C160.689 91.5831 160.93 92.1255 161.35 93.0241C161.77 93.9228 162.143 95.2692 162.659 96.771C163.705 100.089 164.319 103.527 164.486 107.002C164.598 108.138 164.597 109.283 164.483 110.419C164.441 111.133 164.356 111.845 164.231 112.55C164.022 113.573 163.724 113.83 163.428 113.573C162.944 112.935 162.601 112.201 162.423 111.419C162.048 110.316 161.805 108.882 161.251 107.423C160.968 106.783 160.756 106.113 160.618 105.427L160.311 104.348C160.159 103.968 160.005 103.57 159.851 103.154C159.528 102.318 159.19 101.429 158.836 100.5C158.052 98.741 157.162 97.0271 156.495 95.7619L155.197 93.7024C154.808 92.9089 154.361 92.1445 153.862 91.415L153.122 90.3153L151.961 88.5735L149.154 85.1394C141.244 76.362 130.239 70.9937 118.453 70.1636C112.614 69.7566 106.75 70.4558 101.17 72.2245C92.7845 74.9197 85.3521 79.973 79.7618 86.7801C74.1716 93.5873 70.66 101.86 69.6468 110.61C68.9898 116.419 69.4379 122.299 70.9673 127.941C73.2991 136.446 78.038 144.097 84.6142 149.973C91.1904 155.849 99.3239 159.701 108.037 161.065C119.714 162.862 131.634 160.084 141.313 153.309C150.991 146.534 157.682 136.285 159.99 124.698C160.171 123.957 160.312 123.207 160.412 122.45L160.657 120.17C160.761 119.415 160.825 118.655 160.848 117.893L160.851 115.651Z" fill="#1D1D1D"/>
<path d="M105.44 96.3042C105.436 96.2335 105.447 96.1629 105.472 96.0967C105.496 96.0305 105.535 95.9701 105.584 95.9194C106.414 94.6114 108.556 92.7697 111.077 95.8525C111.181 95.9918 111.262 96.1478 111.314 96.314L111.334 106.022C111.403 113.297 111.5 120.584 111.889 127.776C111.972 129.568 112.056 131.36 112.285 133.092L112.319 133.819L112.749 133.489L113.806 132.697C115.104 131.583 116.398 130.375 117.691 129.14C119.654 127.212 121.558 125.192 123.297 123.113C125.029 121.13 126.575 118.993 127.915 116.727C128.17 116.287 128.383 115.826 128.553 115.347C128.544 115.158 128.55 115.279 128.548 115.239C128.338 114.829 128.085 114.442 127.792 114.086C127.475 113.655 126.962 113.071 126.777 112.878C125.766 111.763 124.608 110.656 123.424 109.59C123.424 109.59 122 108.023 119.797 105.952L112.659 99.087C108.763 95.4607 107.779 94.0617 108.567 93.8764C109.355 93.6912 111.868 94.8704 114.755 96.5588C114.501 96.3141 117.88 98.4252 121.243 100.753C122.918 101.917 124.595 103.149 125.855 104.103L127.93 105.748C128.537 106.314 129.158 106.893 129.754 107.5L130.661 108.416L131.102 108.909L131.33 109.155L131.629 109.492C132.154 110.106 132.635 110.756 133.07 111.437C133.336 111.825 133.572 112.234 133.775 112.66C133.913 112.952 134.03 113.253 134.127 113.561C134.218 113.89 134.283 114.226 134.323 114.565C134.386 114.898 134.401 115.238 134.37 115.575C134.352 115.915 134.3 116.253 134.214 116.582C134.157 116.838 134.083 117.089 133.993 117.335C133.908 117.555 133.838 117.788 133.74 117.995C133.423 118.745 133.05 119.471 132.626 120.167C131.099 122.633 129.374 124.971 127.469 127.158C125.642 129.296 123.726 131.348 121.72 133.314C120.431 134.629 119.006 135.925 117.538 137.168L116.407 138.098L115.742 138.602C115.39 138.875 115.01 139.122 114.63 139.383C113.15 140.37 111.54 141.161 110.26 140.937C109.922 140.858 109.588 140.761 109.261 140.646C108.843 140.665 108.638 140.323 108.425 140.09C108.212 139.857 107.983 139.584 107.768 139.324C107.553 139.064 107.528 139.092 107.464 138.879L107.312 138.225C107.027 137.402 106.829 136.551 106.721 135.687C106.634 135.272 106.568 134.722 106.541 134.426L106.507 133.698C106.31 131.804 106.183 129.946 106.084 128.101C105.739 120.704 105.588 113.392 105.516 106.063L105.44 96.3042Z" fill="#1D1D1D"/>
<path d="M154.896 138.492C154.891 138.385 154.983 138.34 155.195 138.249C156.016 137.811 156.96 137.663 157.876 137.827C158.832 138.066 159.746 138.834 160.056 140.858C160.089 141.036 160.097 141.217 160.081 141.397C158.38 144.389 156.375 147.197 154.098 149.778C145.693 159.385 134.036 165.55 121.363 167.088C108.673 168.629 95.8653 165.373 85.4522 157.958C75.0291 150.594 67.691 139.641 64.8449 127.2C63.4071 121.015 63.1364 114.617 64.0469 108.333C64.0375 108.131 64.0287 107.942 64.1271 107.735L64.2142 107.285L64.2774 106.904L64.4046 106.156C64.4898 105.666 64.5878 105.161 64.7135 104.669C64.9243 103.687 65.1614 102.691 65.4402 101.719C66.038 100.015 66.75 98.3532 67.5715 96.745C69.1171 93.6301 71.0557 90.7263 73.3398 88.1044C74.4981 86.6436 75.8562 85.353 77.3742 84.2707C78.2524 83.7031 78.6983 83.7094 78.7165 84.1001C78.7542 84.9085 77.4032 87.213 75.9696 90.0614C76.1372 89.8915 74.1546 93.1301 72.9748 96.7904C72.0856 99.2003 71.3838 101.675 70.8757 104.193C70.6316 105.042 70.4832 105.913 70.2661 106.76L70.0459 108.121L69.9801 108.448L69.9964 108.798C70.004 108.96 69.9307 109.125 69.9119 109.302L69.6563 111.353C69.3727 114.091 69.3656 116.851 69.635 119.591C69.8606 122.335 70.3171 125.056 70.9997 127.723C73.1765 135.706 77.4753 142.949 83.4392 148.684C89.4031 154.418 96.8093 158.43 104.871 160.293C112.932 162.155 121.347 161.799 129.223 159.262C137.098 156.724 144.138 152.101 149.596 145.883C151.609 143.606 153.385 141.129 154.896 138.492Z" fill="#1D1D1D"/>
<path d="M85.8184 80.5961C85.771 80.6413 85.7145 80.6758 85.6526 80.6973C85.5907 80.7188 85.5249 80.7268 85.4597 80.7208C84.5532 80.8381 83.6333 80.6531 82.8426 80.1946C82.0341 79.6516 81.418 78.6001 81.8506 76.5815C81.8897 76.4013 81.9593 76.229 82.0564 76.0723C84.726 73.878 87.6027 71.9486 90.646 70.3114C98.5907 66.0198 107.533 63.9163 116.558 64.2161C117.11 64.1904 117.676 64.164 118.234 64.2461L119.902 64.4114L123.255 64.7818L126.554 65.4653L128.204 65.807L129.807 66.313L133.014 67.3248L136.114 68.6388L137.67 69.2954L139.139 70.1047L142.091 71.7226C149.763 76.464 156.078 83.1103 160.422 91.015C162.595 94.9503 164.239 99.1551 165.312 103.521L165.995 106.878C166.21 107.868 166.351 108.872 166.419 109.883C166.419 109.883 166.446 110.476 166.492 111.459C166.551 112.784 166.528 114.111 166.421 115.433C166.171 118.898 165.486 122.319 164.383 125.614C163.865 127.401 163.104 129.108 162.122 130.689C161.514 131.554 161.142 131.693 160.964 131.337C160.606 130.624 160.982 127.96 161.239 124.789C161.105 125.105 161.632 121.327 161.466 117.486C161.428 115.719 161.256 113.958 160.951 112.217C160.708 110.784 160.556 109.832 160.556 109.832C160.467 108.93 160.322 108.035 160.12 107.152L159.856 105.814L159.663 104.864C159.566 104.384 159.436 103.912 159.273 103.451L158.413 100.642C158.153 99.7086 157.694 98.8388 157.344 97.991C156.6 96.1739 155.733 94.4097 154.749 92.7107C154.242 91.8967 153.692 91.1109 153.1 90.3569C152.584 89.5268 152.019 88.728 151.408 87.9647C150.218 86.4123 148.922 84.9432 147.531 83.5678C144.774 80.786 141.671 78.371 138.297 76.3823C131.508 72.4218 123.819 70.2633 115.961 70.1118C108.103 69.9603 100.337 71.8209 93.4 75.5168C90.7159 76.963 88.177 78.6639 85.8184 80.5961Z" fill="#1D1D1D"/>
<path d="M60.7203 119.857C60.757 119.807 60.8042 119.765 60.8588 119.734C60.9133 119.704 60.9738 119.685 61.0361 119.68C61.9075 119.371 62.857 119.36 63.7353 119.649C64.6562 119.998 65.4823 120.918 65.4834 122.971C65.4809 123.157 65.4437 123.342 65.3737 123.516C63.1377 126.298 60.4686 128.702 57.4686 130.636C53.6753 133.051 49.4787 134.765 45.079 135.696C42.9186 136.167 40.7254 136.472 38.5186 136.609C32.9043 136.996 27.2752 136.109 22.0522 134.014C16.8291 131.919 12.1471 128.67 8.35636 124.511C7.71678 123.825 7.04271 122.979 6.38588 122.213L5.38559 121.031C5.38559 121.031 5.23487 120.984 5.23236 120.93L5.34672 120.776L5.56133 120.455L6.00467 119.827L7.76391 117.301L8.9003 115.898C11.7562 112.448 15.2117 109.542 19.1006 107.321C21.0379 106.179 23.0709 105.208 25.1767 104.418C29.4102 102.925 33.8741 102.192 38.3627 102.251L40.297 102.323L41.8437 102.481C42.8881 102.58 43.9228 102.762 44.9446 102.957L46.5192 103.424L48.2232 104.06C48.8568 104.328 49.6001 104.631 50.3055 104.989C51.8972 105.785 53.4141 106.722 54.8379 107.789C56.2717 108.852 57.5985 110.052 58.7991 111.372C60.1288 112.692 61.243 114.212 62.1012 115.877C62.5371 116.829 62.4739 117.21 62.0831 117.228C61.2709 117.185 59.1921 115.459 56.5204 113.76C54.5344 112.46 52.4399 111.333 50.2601 110.393C48.6818 109.733 47.044 109.226 45.369 108.879C44.0066 108.618 43.0841 108.526 43.0841 108.526C42.2399 108.376 41.397 108.254 40.5431 108.185C40.1254 108.205 39.7027 108.116 39.2703 108.11L38.3926 108.11C37.9345 108.131 37.463 108.153 37.0453 108.173C35.1854 108.212 33.333 108.42 31.511 108.795C29.6895 109.161 27.9061 109.696 26.1843 110.394C22.7288 111.763 19.5465 113.741 16.7882 116.233C15.4007 117.472 14.1308 118.838 12.9948 120.312L12.7269 120.648L13.28 121.217C18.4692 126.634 25.4303 130.008 32.8974 130.727C34.7562 130.914 36.6281 130.93 38.4899 130.777C40.3728 130.654 42.243 130.382 44.0828 129.963C47.7259 129.188 51.1998 127.764 54.3382 125.758C56.7706 124.149 58.9259 122.156 60.7203 119.857Z" fill="#1D1D1D"/>
<path d="M45.9082 190.844C45.9195 190.91 45.916 190.977 45.8979 191.041C45.8799 191.105 45.8478 191.164 45.8039 191.213C45.4132 192.031 44.7594 192.694 43.9472 193.096C43.0473 193.489 41.8572 193.45 40.3677 191.912C40.2398 191.779 40.1366 191.624 40.0628 191.454C39.6818 187.945 39.7893 184.4 40.3823 180.92C41.9692 171.863 46.8266 163.703 54.0323 157.991C57.6261 155.167 61.7107 153.031 66.0806 151.691C68.2643 151.025 70.5006 150.546 72.7653 150.259C73.8971 150.206 75.0233 150.032 76.157 150.02C76.7363 149.993 77.3022 149.966 77.8681 149.94L78.717 149.9C78.973 149.888 79.6094 149.926 80.0713 149.986L83.1897 150.259L83.567 150.241C83.6613 150.237 83.645 150.467 83.6776 150.587L83.8212 151.35L84.0955 152.89L84.3698 154.43L84.5002 155.491C84.5265 156.057 84.6472 156.619 84.6736 157.184C84.8514 159.435 84.8167 161.697 84.5698 163.941C84.35 166.206 83.9023 168.444 83.2335 170.62C82.5979 172.806 81.7515 174.926 80.7063 176.949C78.6352 181.006 75.8341 184.648 72.4433 187.69L71.8736 188.217L71.575 188.474L70.9766 188.961C70.5733 189.29 70.1701 189.619 69.7521 189.922C68.9168 190.542 68.0661 191.122 67.1333 191.678C65.4625 192.574 63.7174 193.324 61.9175 193.92C60.2495 194.479 58.5403 194.906 56.8054 195.197C55.0569 195.479 53.2865 195.603 51.5159 195.565C49.6364 195.629 47.7593 195.383 45.9593 194.839C44.971 194.493 44.7397 194.166 45.0383 193.909C45.6336 193.355 48.2939 193.069 51.3351 192.266C53.658 191.698 55.9345 190.956 58.1452 190.044C59.7268 189.367 61.2475 188.555 62.6907 187.618C63.2801 187.226 63.7789 186.919 64.1044 186.661L64.613 186.273C65.3487 185.833 66.0255 185.289 66.7195 184.824L67.7212 184.008L67.9684 183.807L68.1623 183.623L68.4211 183.381L69.457 182.428C70.7925 181.088 72.021 179.644 73.1313 178.112C74.1976 176.564 75.142 174.935 75.956 173.241C77.561 169.8 78.5189 166.094 78.7818 162.307C78.9215 160.428 78.8923 158.54 78.6946 156.666L78.5642 155.606L78.416 155.613C70.8029 155.326 63.3442 157.81 57.4241 162.606C51.504 167.401 47.5246 174.181 46.2243 181.688C45.6797 184.709 45.5732 187.793 45.9082 190.844Z" fill="#1D1D1D"/>
<path d="M127.321 208.075C127.316 207.967 127.394 207.923 127.592 207.82C128.353 207.33 129.25 207.094 130.153 207.147C131.118 207.277 132.148 207.931 132.648 209.961C132.683 210.142 132.692 210.329 132.673 210.513C131.207 213.724 129.296 216.713 126.997 219.392C126.28 220.236 125.508 221.042 124.72 221.821L124.112 222.389L123.789 222.702L123.205 223.201C122.439 223.858 121.659 224.516 120.865 225.147L120.28 225.633C120.28 225.633 120.185 225.638 120.132 225.64L119.978 225.526L119.657 225.311L118.402 224.451L117.146 223.592C116.743 223.327 116.266 222.944 116.112 222.83C115.23 222.155 114.386 221.438 113.568 220.693C111.942 219.178 110.442 217.532 109.085 215.771C107.759 213.988 106.579 212.101 105.555 210.129C101.527 202.103 100.514 192.898 102.699 184.188C103.744 179.875 105.562 175.787 108.065 172.123C109.325 170.291 110.74 168.572 112.295 166.983L113.497 165.834L113.911 165.45L114.483 164.964L115.652 163.978L116.808 163.006L117.107 162.749C117.198 162.664 117.3 162.551 117.403 162.735L118.032 163.178L120.543 164.911C120.753 165.064 120.948 165.203 121.117 165.344L121.481 165.624L122.109 166.067C122.557 166.397 122.953 166.784 123.375 167.142C124.218 167.859 124.985 168.661 125.777 169.448C127.291 171.065 128.664 172.807 129.882 174.658L130.904 176.298L131.64 177.614C132.142 178.522 132.564 179.475 132.986 180.414C132.986 180.414 133.161 180.986 133.476 181.957C133.859 183.274 134.165 184.613 134.392 185.965C134.996 189.449 135.007 193.009 134.424 196.496C134.181 198.36 133.651 200.175 132.852 201.876C132.341 202.791 131.984 202.97 131.766 202.642C131.344 201.974 131.435 199.296 131.182 196.175C130.973 193.791 130.588 191.426 130.028 189.099C129.597 187.442 129.038 185.82 128.357 184.248L127.624 182.716C127.538 182.517 127.438 182.323 127.327 182.136C126.967 181.356 126.594 180.59 126.167 179.84C125.974 179.458 125.754 179.09 125.521 178.723L125.039 177.935C124.804 177.541 124.504 177.19 124.256 176.797C123.188 175.296 121.983 173.897 120.659 172.616C120.021 171.957 119.249 171.332 118.615 170.767L117.606 169.977L116.687 170.843C116.351 171.156 116.057 171.507 115.734 171.833C114.479 173.179 113.349 174.638 112.359 176.19C110.385 179.3 108.977 182.734 108.2 186.335C106.984 191.751 107.223 197.392 108.893 202.686C110.562 207.98 113.603 212.738 117.706 216.476L118.748 217.387L119.827 218.241L119.911 218.305L120.688 217.58C121.333 216.929 121.977 216.264 122.565 215.561C124.496 213.304 126.098 210.783 127.321 208.075Z" fill="#1D1D1D"/>
<path d="M190.278 185.009C190.412 185.003 190.453 185.001 190.646 185.1C191.466 185.492 192.133 186.145 192.542 186.956C192.935 187.856 192.896 189.046 191.426 190.533C191.296 190.665 191.14 190.768 190.968 190.837C184.664 191.575 178.277 190.693 172.409 188.275C166.54 185.857 161.386 181.984 157.431 177.02C154.575 173.458 152.403 169.397 151.026 165.044C150.345 162.863 149.857 160.627 149.567 158.361C149.514 157.229 149.326 156.09 149.314 154.956C149.287 154.39 149.261 153.824 149.235 153.258L149.262 152.406C149.252 152.191 149.228 151.665 149.325 151.134L149.599 148.029L149.58 147.639L149.572 147.45C149.568 147.383 149.565 147.302 149.646 147.311L150.423 147.167L151.963 146.893L153.503 146.619L154.227 146.504L154.685 146.483C155.251 146.456 155.811 146.322 156.377 146.296C158.627 146.119 160.889 146.15 163.133 146.386C172.286 147.322 180.768 151.612 186.946 158.429L187.472 158.998L187.729 159.297L188.216 159.895C188.546 160.298 188.888 160.688 189.178 161.12C189.812 161.962 190.403 162.836 190.948 163.738C191.854 165.402 192.613 167.142 193.215 168.939C193.779 170.606 194.211 172.315 194.507 174.05C194.79 175.794 194.922 177.559 194.901 179.325C194.962 181.203 194.722 183.079 194.188 184.881C193.843 185.883 193.515 186.101 193.245 185.816C192.691 185.221 192.406 182.574 191.602 179.519C191.034 177.2 190.287 174.928 189.368 172.723C188.682 171.141 187.861 169.621 186.914 168.179C186.536 167.589 186.216 167.104 185.958 166.779L185.569 166.257C185.117 165.535 184.586 164.858 184.121 164.164L183.305 163.162L183.104 162.915L182.678 162.462C182.352 162.126 182.052 161.762 181.712 161.427C179.052 158.737 175.931 156.545 172.498 154.956C169.047 153.389 165.346 152.446 161.566 152.171C159.687 152.04 157.8 152.078 155.927 152.285L154.984 152.329L155 152.679C154.741 160.3 157.258 167.757 162.083 173.661C166.908 179.566 173.713 183.518 181.234 184.782C184.224 185.272 187.267 185.349 190.278 185.009Z" fill="#1D1D1D"/>
<path d="M190.14 123.456C190.203 123.456 190.266 123.471 190.323 123.498C190.381 123.526 190.431 123.566 190.471 123.616C191.176 124.166 191.685 124.928 191.923 125.789C192.143 126.751 191.873 127.912 190.147 129.113C189.989 129.203 189.82 129.27 189.643 129.312C186.124 129.053 182.658 128.305 179.345 127.091C175.22 125.542 171.402 123.274 168.068 120.392C167.226 119.702 166.447 118.915 165.668 118.141L165.113 117.546L164.787 117.197L164.289 116.653L162.358 114.339L161.872 113.754C161.719 113.667 161.862 113.552 161.952 113.453L162.167 113.146L163.028 111.904L163.888 110.662C164.027 110.467 164.166 110.244 164.319 110.048L164.662 109.6C165.324 108.732 166.041 107.889 166.773 107.085C172.773 100.509 180.925 96.2918 189.76 95.1944C198.594 94.097 207.53 96.1913 214.957 101.1C216.793 102.305 218.516 103.675 220.103 105.194C220.514 105.561 220.906 105.948 221.278 106.355L221.846 106.95C222.016 107.131 222.428 107.571 222.729 107.948L224.659 110.248L224.902 110.534L225.031 110.69C225.031 110.69 224.968 110.787 224.944 110.843L224.513 111.457L223.6 112.728L222.816 113.858L222.396 114.418L221.862 115.132C221.544 115.538 221.211 115.932 220.878 116.325C220.213 117.126 219.491 117.862 218.77 118.611L217.468 119.644C216.4 120.477 215.286 121.25 214.132 121.96C211.124 123.815 207.82 125.143 204.364 125.885C202.545 126.362 200.66 126.537 198.784 126.402C197.738 126.275 197.416 126.02 197.671 125.697C198.125 125.014 200.653 124.208 203.46 122.727C205.597 121.654 207.652 120.426 209.608 119.051C210.988 118.022 212.29 116.892 213.502 115.67L214.659 114.414L215.081 113.922C215.688 113.313 216.237 112.653 216.801 112.005L217.54 111.053L217.029 110.523C216.417 109.836 215.727 109.233 215.064 108.629C213.691 107.432 212.223 106.349 210.673 105.391C204.393 101.575 196.975 100.076 189.706 101.155C182.437 102.233 175.774 105.821 170.872 111.296C170.577 111.647 170.255 111.973 169.974 112.323L169.223 113.29L170.061 114.183C170.725 114.813 171.363 115.472 172.065 116.034C174.847 118.393 178.012 120.26 181.423 121.553C184.227 122.584 187.16 123.225 190.14 123.456Z" fill="#1D1D1D"/>
<path d="M154.837 84.5506C154.788 84.5914 154.729 84.6202 154.667 84.6349C154.604 84.6495 154.539 84.6495 154.477 84.6349C153.575 84.6742 152.685 84.4274 151.932 83.9298C151.148 83.3317 150.598 82.25 151.179 80.238C151.25 80.0651 151.342 79.902 151.454 79.7526C154.337 77.726 157.489 76.1112 160.818 74.9549C168.134 72.4202 176.058 72.2257 183.49 74.3982C185.335 74.9384 187.136 75.6173 188.878 76.4292C189.181 76.5636 189.596 76.7739 189.984 76.9853L191.147 77.5928L192.323 78.1997L192.904 78.5102C192.985 78.5064 193.124 78.5944 193.182 78.6728L193.102 78.9871L192.534 81.5656C192.369 82.3835 192.095 83.4495 192 83.7375C190.98 87.4395 189.385 90.9584 187.274 94.1659C186.204 95.8178 184.998 97.378 183.67 98.8303C183.67 98.8303 183.244 99.2553 182.492 99.9249L181.101 101.083L179.287 102.424C176.366 104.429 173.14 105.947 169.733 106.92C167.939 107.489 166.064 107.763 164.181 107.732C163.137 107.646 162.815 107.391 163.042 107.056C163.471 106.401 165.935 105.382 168.672 103.837C170.739 102.639 172.724 101.306 174.616 99.8463C175.923 98.7257 177.143 97.5089 178.268 96.2059C178.757 95.697 179.099 95.2084 179.355 94.8994L179.763 94.3943C180.679 93.3091 181.528 92.1693 182.305 90.9812C184.086 88.2688 185.433 85.2948 186.296 82.1668L186.4 81.7839L186.319 81.7876C178.937 78.2831 170.478 77.8049 162.748 80.4552C159.932 81.4413 157.268 82.82 154.837 84.5506Z" fill="#1D1D1D"/>
<path d="M165.31 121.804C165.245 121.8 165.183 121.781 165.127 121.748C165.072 121.716 165.025 121.67 164.99 121.616C164.329 120.997 163.876 120.188 163.694 119.3C163.569 118.347 163.947 117.182 165.777 116.178C165.945 116.097 166.125 116.043 166.309 116.018C169.784 116.626 173.157 117.714 176.331 119.251C183.3 122.631 189.044 128.098 192.763 134.892C193.682 136.593 194.468 138.362 195.116 140.183C195.272 140.566 195.408 140.956 195.522 141.353L195.922 142.684L196.318 143.935L196.509 144.575C196.533 144.676 196.538 144.781 196.524 144.884L196.248 145.059L194.021 146.513C193.327 146.978 192.38 147.535 192.103 147.669C188.762 149.57 185.144 150.937 181.381 151.72C179.459 152.129 177.506 152.378 175.542 152.465C175.542 152.465 174.936 152.493 173.919 152.405L172.129 152.246L169.899 151.904C166.427 151.26 163.086 150.047 160.009 148.314C158.341 147.451 156.825 146.322 155.519 144.972C154.82 144.167 154.788 143.777 155.173 143.638C155.949 143.466 158.4 144.5 161.437 145.344C163.746 145.946 166.09 146.405 168.455 146.719C170.172 146.874 171.897 146.902 173.617 146.802C174.318 146.77 174.962 146.672 175.311 146.642L175.958 146.612C177.373 146.504 178.78 146.307 180.171 146.024C183.346 145.358 186.398 144.205 189.22 142.605L189.575 142.399L189.572 142.319C187.668 137.094 184.419 132.463 180.154 128.895C175.888 125.326 170.757 122.946 165.278 121.994L165.31 121.804Z" fill="#1D1D1D"/>
<path d="M148.746 187.079C148.746 187.079 148.827 187.075 148.876 187.262C149.191 188.188 149.226 189.186 148.977 190.132C148.728 191.078 148.206 191.929 147.477 192.58C147.39 192.657 147.286 192.713 147.174 192.743C145.639 192.328 144.134 191.807 142.672 191.184C136.449 188.578 131.054 184.324 127.07 178.88C126.166 177.667 125.349 176.392 124.624 175.065L124.332 174.322C124.176 173.857 123.97 173.205 123.718 172.433C123.23 170.749 122.95 169.012 122.883 167.26C122.753 164.484 123.293 163.609 123.881 163.757C124.468 163.905 125.291 165.041 126.014 166.358C126.006 166.196 126.812 167.847 127.79 169.421C128.259 170.21 128.808 170.967 129.239 171.528C129.67 172.088 129.93 172.454 129.93 172.454C130.545 173.569 131.24 174.638 132.01 175.652C133.67 177.866 135.619 179.846 137.807 181.539C140.02 183.262 142.452 184.684 145.039 185.767C146.242 186.292 147.481 186.73 148.746 187.079Z" fill="#1D1D1D"/>
<path d="M146.373 155.552C146.343 155.497 146.326 155.435 146.323 155.372C146.32 155.309 146.331 155.246 146.356 155.188C146.315 154.285 146.567 153.392 147.075 152.643C147.66 151.873 148.754 151.309 150.754 151.905C150.929 151.964 151.093 152.052 151.238 152.166C153.273 155.049 154.888 158.206 156.037 161.543L156.209 162.048C156.811 163.916 157.274 165.826 157.596 167.763C157.778 169.651 157.803 171.551 157.671 173.444C157.536 175.198 157.269 176.939 156.874 178.653C156.462 180.375 155.894 182.055 155.177 183.674C154.507 185.43 153.558 187.065 152.365 188.518C151.658 189.293 151.271 189.379 151.145 189.006C150.867 188.25 151.625 185.689 152.116 182.588C152.479 180.224 152.67 177.837 152.688 175.445C152.676 173.722 152.51 172.003 152.192 170.31C152.065 169.627 151.967 168.97 151.858 168.651L151.707 168.024C151.436 166.625 151.083 165.244 150.65 163.887L150.495 163.462C149.495 160.647 148.107 157.985 146.373 155.552Z" fill="#1D1D1D"/>
<path d="M109.119 166.024C109.114 165.903 109.111 165.849 109.321 165.704C109.932 165.04 110.738 164.587 111.623 164.409C112.59 164.283 113.755 164.661 114.758 166.491C114.833 166.66 114.883 166.84 114.905 167.024C113.947 172.566 111.754 177.821 108.49 182.4C105.225 186.979 100.971 190.765 96.0447 193.477C94.3399 194.392 92.5717 195.182 90.7538 195.844C90.4489 195.966 89.9964 196.109 89.5838 196.236L88.3329 196.632L87.0013 197.031L86.3755 197.223C86.2736 197.243 86.169 197.248 86.0656 197.237L85.8908 196.962L84.4367 194.734C83.9722 194.04 83.415 193.094 83.2806 192.816C80.3953 187.752 78.7432 182.079 78.4582 176.257C78.4582 176.257 78.43 175.65 78.5176 174.634C78.5618 174.132 78.6144 173.522 78.6773 172.844L79.019 170.613C79.6715 167.144 80.884 163.804 82.6092 160.724C83.4752 159.054 84.6087 157.537 85.9647 156.233C86.7559 155.535 87.1595 155.502 87.2989 155.887C87.4701 156.663 86.45 159.114 85.6058 162.151C84.9941 164.463 84.5307 166.812 84.2185 169.183C84.0668 170.895 84.0432 172.615 84.1478 174.331C84.181 175.045 84.2105 175.678 84.2275 176.042L84.257 176.675C84.3631 178.095 84.5642 179.507 84.8589 180.901C85.5167 184.078 86.6706 187.132 88.2782 189.95L88.4703 190.306L88.5512 190.302C90.0759 189.746 91.5568 189.077 92.9814 188.3C98.7022 185.164 103.305 180.324 106.15 174.453C107.53 171.797 108.53 168.959 109.119 166.024Z" fill="#1D1D1D"/>
<path d="M75.3183 147.088C75.3758 147.057 75.4396 147.039 75.5049 147.036C75.5703 147.033 75.6355 147.045 75.6956 147.07C76.5987 147.034 77.4899 147.286 78.2406 147.789C79.0106 148.374 79.5612 149.469 78.9798 151.481C78.917 151.654 78.8238 151.814 78.7047 151.953C75.8294 153.993 72.676 155.609 69.3411 156.751C62.0262 159.29 54.1024 159.489 46.6691 157.321C44.826 156.771 43.0251 156.087 41.2806 155.277C40.9914 155.155 40.5631 154.946 40.1751 154.734L39.0126 154.127L37.8359 153.506L37.255 153.209C37.1579 153.163 37.065 153.109 36.9773 153.047L37.0566 152.719L37.6257 150.154C37.7895 149.322 38.0646 148.27 38.1592 147.982C39.1861 144.274 40.7799 140.747 42.8842 137.526C43.9512 135.876 45.1572 134.32 46.4889 132.876C46.4889 132.876 46.9141 132.437 47.6795 131.767L49.0569 130.609L50.872 129.282C53.7865 127.266 57.0145 125.747 60.4252 124.786C62.2201 124.217 64.0951 123.943 65.9777 123.974C67.0208 124.047 67.3432 124.302 67.1158 124.636C66.6878 125.305 64.2231 126.311 61.4865 127.856C59.4253 129.068 57.4403 130.405 55.5426 131.86C54.2182 132.961 52.9786 134.161 51.8345 135.449C51.3451 135.958 51.0167 136.445 50.7476 136.755L50.339 137.26C49.4202 138.338 48.571 139.474 47.7968 140.66C46.0406 143.373 44.7124 146.341 43.8587 149.458L43.7422 149.855L43.823 149.852C45.2937 150.528 46.8093 151.103 48.3591 151.571C52.9019 152.889 57.6825 153.17 62.3484 152.394C67.0143 151.618 71.4466 149.805 75.3183 147.088Z" fill="#1D1D1D"/>
<path d="M64.9023 109.832C65.0371 109.826 65.0775 109.824 65.2223 110.034C65.8909 110.642 66.3453 111.449 66.5178 112.336C66.6438 113.303 66.2795 114.467 64.4359 115.471C64.2668 115.548 64.0869 115.597 63.9026 115.618C58.3622 114.661 53.1085 112.468 48.5313 109.203C43.9541 105.938 40.171 101.684 37.4627 96.757C36.5429 95.0549 35.7518 93.2863 35.0962 91.4661C34.974 91.1612 34.8185 90.7229 34.6906 90.2967L34.2992 89.1402L33.9131 87.8079L33.7084 87.1828C33.7034 87.075 33.6169 86.9575 33.6266 86.876L33.9155 86.7005L36.1298 85.2471C36.8238 84.7826 37.7701 84.2254 38.0474 84.091C41.3931 82.1925 45.0156 80.83 48.7832 80.053C50.7029 79.6578 52.6521 79.4225 54.6107 79.3495C54.6107 79.3495 55.217 79.3212 56.2338 79.4089L58.023 79.5551L60.2669 79.8961C63.7304 80.555 67.0651 81.7675 70.1429 83.4869C71.8188 84.3496 73.3407 85.4832 74.6472 86.8419C75.3322 87.6336 75.3645 88.0372 74.9794 88.1767C74.2036 88.3344 71.7525 87.3143 68.729 86.4694C66.4159 85.862 64.0673 85.3987 61.6968 85.0822C59.9805 84.9303 58.2552 84.9068 56.5354 85.0121C55.8347 85.0447 55.188 85.0748 54.8377 85.0912L54.1909 85.1213C52.7752 85.2278 51.3681 85.4287 49.979 85.7226C46.8029 86.3847 43.7496 87.5383 40.9293 89.1419L40.5736 89.334L40.5774 89.4148C41.1344 90.9371 41.799 92.4178 42.5662 93.8457C45.7102 99.5604 50.5474 104.161 56.4127 107.014C59.0972 108.345 61.9548 109.294 64.9023 109.832Z" fill="#1D1D1D"/>
<path d="M83.8363 76.0298C83.8784 76.0814 83.9079 76.142 83.9227 76.2069C83.9374 76.2718 83.9369 76.3392 83.9213 76.4039C83.9587 77.305 83.712 78.195 83.2161 78.9483C82.6174 79.7189 81.5364 80.2824 79.5237 79.6875C79.3469 79.6255 79.1826 79.5326 79.0384 79.413C77.0101 76.531 75.3952 73.3792 74.2406 70.0494C71.0603 60.8652 71.5895 50.8024 75.7156 42.0024C75.85 41.6991 76.0596 41.2708 76.2576 40.8834L76.8786 39.7203L77.4861 38.5577L77.7824 37.9633C77.7787 37.8824 77.8808 37.7561 77.9457 37.6991L78.2728 37.7649L80.8514 38.3334C81.6692 38.4979 82.7352 38.7723 83.0232 38.8669C86.7251 39.9149 90.2434 41.5272 93.4542 43.6471C95.1013 44.7182 96.6569 45.9239 98.1051 47.2518C98.1051 47.2518 98.5435 47.6769 99.2138 48.4424L100.372 49.8198L101.712 51.6342C103.717 54.5597 105.236 57.7903 106.209 61.2009C106.77 62.9928 107.044 64.8623 107.02 66.7399C106.935 67.7971 106.679 68.1061 106.344 67.8786C105.69 67.45 104.67 64.9859 103.125 62.2493C101.917 60.1882 100.585 58.203 99.1345 56.3048C98.0292 54.9838 96.8297 53.7445 95.5455 52.5967C95.0372 52.1207 94.5487 51.7789 94.2256 51.5104L93.7339 51.1012C92.6487 50.1857 91.5089 49.337 90.3208 48.5596C87.608 46.7827 84.6342 45.4406 81.507 44.5818L81.1235 44.4646L81.1273 44.5454C80.439 46.0113 79.8641 47.5278 79.4077 49.0816C78.0906 53.6195 77.8047 58.3944 78.571 63.0571C79.3372 67.7197 81.1362 72.1521 83.8363 76.0298Z" fill="#1D1D1D"/>
<path d="M121.093 65.6117C121.099 65.7464 121.101 65.7868 120.892 65.9316C120.291 66.6089 119.48 67.0651 118.589 67.2271C117.623 67.3532 116.458 66.9888 115.454 65.1452C115.378 64.9761 115.328 64.7962 115.308 64.6119C115.915 61.1419 117.004 57.7736 118.541 54.6041C121.917 47.6322 127.385 41.8876 134.182 38.1714C135.882 37.2488 137.651 36.4576 139.473 35.8049C139.856 35.6541 140.246 35.5232 140.643 35.4128L141.974 35.0132L143.225 34.6174L143.85 34.4127C143.958 34.4077 144.076 34.3347 144.171 34.3303L144.346 34.6192L145.8 36.8335C146.264 37.5275 146.821 38.4737 146.956 38.751C148.849 42.1004 150.215 45.7212 151.007 49.4862C151.416 51.4042 151.665 53.3528 151.751 55.3119C151.751 55.3119 151.78 55.9317 151.692 56.935L151.533 58.7383L150.975 60.9788C150.32 64.4474 149.108 67.7871 147.385 70.8682C146.519 72.5342 145.39 74.0503 144.043 75.3584C143.238 76.044 142.848 76.0757 142.708 75.6906C142.537 74.9154 143.557 72.4644 144.402 69.4408C145.019 67.13 145.483 64.7808 145.789 62.4086C145.945 60.6924 145.973 58.967 145.873 57.2466C145.84 56.546 145.743 55.9024 145.713 55.5527L145.683 54.9059C145.576 53.4901 145.375 52.083 145.081 50.694C144.426 47.5161 143.272 44.4618 141.662 41.6442L141.47 41.2886L141.389 41.2924C139.87 41.8469 138.394 42.5114 136.972 43.2806C132.815 45.5749 129.228 48.7744 126.475 52.6423C123.722 56.5103 121.873 60.9477 121.067 65.6264L121.093 65.6117Z" fill="#1D1D1D"/>
<path d="M162.495 47.4117C162.447 47.4569 162.391 47.4915 162.329 47.513C162.267 47.5345 162.201 47.5425 162.136 47.5364C161.239 47.6705 160.323 47.4992 159.534 47.05C158.7 46.5218 158.112 45.5094 158.462 43.4542C158.504 43.2723 158.578 43.0996 158.681 42.9443C164.809 37.728 172.465 34.642 180.498 34.1502C181.616 34.0981 182.734 34.046 183.844 34.0889L184.804 34.1251C185.289 34.1025 185.82 34.1993 186.322 34.2435L187.84 34.3753L188.613 34.4338L188.99 34.4162C189.084 34.4118 189.3 34.4018 189.266 34.5519L189.825 37.564C189.849 38.0626 190.022 38.5946 190.069 39.038L190.178 39.9241C190.324 41.0246 190.363 42.1435 190.414 43.2484C190.654 52.2451 187.636 61.0257 181.916 67.9738C176.195 74.922 168.158 79.57 159.283 81.0623C157.086 81.4279 154.862 81.5993 152.636 81.5745L151.797 81.5461C151.582 81.5561 151.124 81.5775 150.593 81.4807L147.542 81.2177L146.783 81.1586C146.702 81.1623 146.689 81.1629 146.683 81.0417L146.674 80.8531L146.657 80.4758L146.384 78.9761L146.098 77.4636C146.076 76.9921 145.953 76.3901 145.918 76.2028L145.77 75.0619L145.734 74.2804C145.71 73.7684 145.685 73.2429 145.661 72.7309C145.613 71.6934 145.565 70.656 145.679 69.6244C145.88 67.7429 146.245 65.8825 146.77 64.0644C147.722 60.6543 149.258 57.435 151.309 54.5493C152.325 52.9728 153.592 51.5729 155.059 50.4047C155.908 49.7845 156.299 49.7798 156.398 50.1668C156.517 50.9714 155.195 53.315 154.116 56.2549C153.276 58.4854 152.598 60.7733 152.086 63.101C151.754 64.7925 151.562 66.5087 151.515 68.2318C151.547 68.9324 151.483 69.5836 151.513 69.9332L151.543 70.58C151.48 72.2813 151.559 73.985 151.78 75.6731L152.643 75.6329C153.101 75.6116 153.559 75.5902 153.99 75.5701C155.837 75.533 157.676 75.3207 159.483 74.9361C166.782 73.4301 173.311 69.3844 177.908 63.5184C182.506 57.6523 184.874 50.346 184.592 42.8985C184.548 41.9688 184.506 41.0526 184.358 40.2088L184.341 39.845L183.533 39.8826C182.603 39.9259 181.683 39.8743 180.757 40.0119C177.07 40.2713 173.457 41.1707 170.079 42.6699C167.345 43.8941 164.793 45.4898 162.495 47.4117Z" fill="#1D1D1D"/>
<path d="M111.384 60.7168C111.435 60.7567 111.476 60.8065 111.507 60.8631C111.538 60.9197 111.556 60.982 111.562 61.0461C111.854 61.9252 111.842 62.8774 111.526 63.7484C111.149 64.6571 110.255 65.4549 108.159 65.404C107.976 65.3958 107.795 65.3538 107.627 65.2803C102.791 61.2383 99.0563 56.0382 96.7711 50.1642C94.4859 44.2903 93.7243 37.9336 94.5574 31.686C94.8626 29.4501 95.3607 27.2448 96.0462 25.0947C96.7574 22.9536 97.6452 20.8753 98.7004 18.8812C99.8102 16.9219 101.078 15.0565 102.491 13.3034C103.207 12.4329 103.937 11.5752 104.736 10.7683C105.116 10.3515 105.517 9.95426 105.937 9.57808L106.589 8.80501C106.952 8.47754 107.368 8.13408 107.758 7.80535L108.94 6.80507L109.539 6.31809L109.824 6.07522L109.98 5.94643C109.98 5.94643 110.078 6.0094 110.134 6.04731L112.687 7.80529C113.092 8.11046 113.551 8.39964 113.903 8.69385L114.575 9.21614C115.023 9.55984 115.459 9.91765 115.868 10.2902C117.554 11.7686 119.099 13.4008 120.483 15.1658C123.311 18.6955 125.466 22.7142 126.842 27.0223C128.218 31.3241 128.803 35.8397 128.57 40.3503L128.606 41.1183L128.623 41.4955L128.538 42.2692C128.504 42.7881 128.442 43.3048 128.353 43.8171L128.114 45.3541L127.78 46.8685C126.704 50.3747 125.061 53.6808 122.916 56.6553C121.874 58.0879 120.712 59.4295 119.443 60.6654C118.155 62.0338 116.654 63.1845 114.997 64.0727C114.046 64.5221 113.665 64.4589 113.65 64.1355C113.612 63.3271 115.352 61.2476 116.983 58.579C118.216 56.5305 119.299 54.3951 120.223 52.1897C120.873 50.5927 121.383 48.9425 121.749 47.2575C121.892 46.5622 122.027 45.9888 122.062 45.582L122.167 44.9425C122.358 44.1099 122.453 43.2413 122.589 42.3978L122.719 41.1225L122.704 40.7991L122.675 40.1928L122.734 38.8397C122.732 36.9698 122.582 35.103 122.285 33.2569C121.96 31.4163 121.487 29.605 120.871 27.8406C120.217 26.0934 119.424 24.401 118.502 22.7793C117.551 21.1703 116.473 19.6402 115.278 18.2034C114.051 16.8127 112.718 15.5204 111.29 14.3383L110.253 13.5359L109.309 14.4306C108.973 14.7568 108.665 15.1087 108.344 15.4478C107.7 16.1259 107.059 16.8579 106.539 17.5843C105.4 19.0669 104.398 20.6502 103.546 22.3148C100.264 28.672 99.2458 35.9578 100.66 42.9711C102.074 49.9844 105.836 56.3065 111.325 60.8951L111.384 60.7168Z" fill="#1D1D1D"/>
<path d="M73.8551 79.4519C73.9185 79.4436 73.9829 79.4487 74.0442 79.4668C74.1055 79.4849 74.1624 79.5155 74.2111 79.5569C75.0244 79.9627 75.6816 80.6248 76.0813 81.4412C76.4608 82.3417 76.4083 83.5324 74.8971 85.0071C74.7594 85.1334 74.5991 85.2325 74.4246 85.2992C70.9178 85.644 67.38 85.4998 63.9128 84.8707C57.2005 83.6254 50.9574 80.5655 45.8612 76.023C40.7649 71.4805 37.0101 65.629 35.0042 59.1035C34.3515 56.9181 33.8859 54.6811 33.6124 52.4168C33.5597 51.285 33.3992 50.1582 33.3869 49.0245C33.3611 48.4721 33.3348 47.9062 33.3758 47.3372L33.4036 46.4852C33.3835 46.054 33.4662 45.5101 33.5097 44.9949L33.7708 41.9041L33.762 41.7154C33.762 41.7154 33.8833 41.7098 33.9372 41.7073L34.3144 41.6897L35.0774 41.5461L36.6291 41.2308L38.1422 40.9577L39.1227 40.8446C39.6886 40.8182 40.2501 40.6975 40.816 40.6711C43.0671 40.502 45.329 40.5412 47.5729 40.7884C49.8278 41.0207 52.0553 41.4686 54.2247 42.1259C56.4077 42.7728 58.5199 43.638 60.5294 44.7083C64.5703 46.7641 68.2006 49.5422 71.2411 52.9052L71.7672 53.4749L72.0107 53.7741L72.5112 54.3719C72.8405 54.7752 73.1693 55.1649 73.4729 55.5964C74.1024 56.4389 74.6885 57.3129 75.2288 58.2152C76.9713 61.4349 78.1736 64.9187 78.7879 68.5277C79.0741 70.2756 79.2018 72.0458 79.1694 73.8166C79.2368 75.6908 78.9956 77.5633 78.4554 79.3591C78.1104 80.3609 77.783 80.5787 77.5267 80.2936C76.9723 79.6983 76.6863 77.038 75.883 73.9967C75.3336 71.627 74.5978 69.3045 73.6825 67.0507C72.9952 65.4714 72.1792 63.9514 71.2428 62.5058C70.8507 61.9164 70.5304 61.4183 70.2728 61.1062L69.9391 60.6086C69.4863 59.8735 68.9551 59.1961 68.4913 58.5156L67.6615 57.5145L67.4609 57.2673L67.0482 56.8139C66.722 56.478 66.4215 56.114 66.0824 55.7922C64.751 54.4652 63.3171 53.2452 61.794 52.1436C60.2505 51.0815 58.6266 50.1413 56.9369 49.3317C55.2273 48.56 53.4594 47.9245 51.6497 47.431C49.8315 46.9759 47.9792 46.6693 46.1113 46.5143C44.2412 46.3832 42.3635 46.4074 40.4974 46.5868L39.3559 46.721L39.3616 46.8423C39.0423 54.3999 41.4561 61.8197 46.1609 67.7429C50.8657 73.6661 57.5468 77.6964 64.9806 79.0957C67.9078 79.6268 70.8948 79.7467 73.8551 79.4519Z" fill="#1D1D1D"/>
</svg>
