<svg width="228" height="227" viewBox="0 0 228 227" fill="none" xmlns="http://www.w3.org/2000/svg">
<path d="M130.542 129.837C130.613 129.828 130.685 129.834 130.753 129.854C130.822 129.874 130.885 129.908 130.94 129.954C132.326 130.726 134.23 132.771 131.196 135.451C131.062 135.56 130.911 135.645 130.748 135.701L94.4364 137.393C94.3286 137.398 93.8166 137.422 93.4663 137.438C93.0833 137.411 92.7044 137.342 92.336 137.234C90.8534 136.768 89.6157 135.733 88.8937 134.357C88.5257 133.677 88.298 132.93 88.2242 132.16C88.2029 131.702 88.1985 131.607 88.1885 131.392L86.4309 93.6652C86.4271 92.8975 86.5766 92.1368 86.8705 91.4275C87.1643 90.7182 87.5967 90.0747 88.1423 89.5346C88.6882 88.9984 89.3335 88.5739 90.042 88.2848C90.3981 88.1385 90.7688 88.0307 91.1478 87.9633C91.3401 87.941 91.5337 87.932 91.7272 87.9363L129.737 86.1655C129.898 86.1458 130.06 86.1382 130.222 86.1429C130.41 86.1209 130.599 86.1121 130.788 86.1165C131.554 86.1991 132.295 86.4356 132.967 86.8117C134.318 87.5665 135.314 88.8265 135.736 90.315C135.832 90.6885 135.895 91.0696 135.924 91.454L136.848 111.274C136.848 111.274 136.671 120.235 136.06 126.528C135.315 137.204 133.81 133.02 132.817 126.477C132.714 127.17 131.005 110.79 131.005 110.79L130.127 91.9266L92.2788 93.6899L94.0421 131.538L130.542 129.837Z" fill="#1D1D1D"/>
<path d="M68.1475 123.832C68.1774 123.892 68.1945 123.958 68.1977 124.026C68.2008 124.093 68.1899 124.16 68.1657 124.223C67.891 125.097 67.3385 125.858 66.5922 126.389C65.7519 126.901 64.5546 126.997 62.905 125.791C62.7593 125.675 62.6341 125.534 62.5346 125.376C61.6163 122.059 61.0415 118.656 60.8192 115.221C60.0897 104.109 62.9674 93.0586 69.0241 83.714C75.0809 74.3693 83.9929 67.2299 94.434 63.3583C104.875 59.4866 116.287 59.0896 126.972 62.2264C137.657 65.3631 147.044 71.8659 153.735 80.7671C153.851 80.9237 153.979 81.0798 154.082 81.2505L154.356 81.6293L154.573 81.9433L155.007 82.5577C155.309 82.9622 155.586 83.3949 155.851 83.8687C156.404 84.7206 156.93 85.5738 157.418 86.4963C158.231 88.1641 158.925 89.887 159.495 91.6522C160.613 94.9431 161.299 98.3653 161.536 101.833C161.746 103.683 161.697 105.553 161.389 107.389C161.181 108.412 160.896 108.682 160.587 108.426C159.969 107.915 159.321 105.312 158.316 102.28C158.331 102.617 157.349 98.9223 155.715 95.4471C154.64 93.1158 153.384 90.8718 151.959 88.7356C151.532 87.9588 151.026 87.2397 150.504 86.4808L149.739 85.4093L149.55 85.1345L149.348 84.8468L149.045 84.4289L147.767 82.8005C146.036 80.6583 144.089 78.6993 141.958 76.9542C139.862 75.1721 137.619 73.5692 135.254 72.1625C128.067 68.0359 119.897 65.9336 111.612 66.0791C103.326 66.2245 95.2349 68.6123 88.1978 72.9885C81.1608 77.3648 75.441 83.5661 71.6465 90.9331C67.852 98.3001 66.1245 106.558 66.6477 114.828C66.8386 117.873 67.3412 120.89 68.1475 123.832Z" fill="#1D1D1D"/>
<path d="M157.954 115.935C157.95 115.869 157.963 115.803 157.991 115.743C158.018 115.682 158.061 115.63 158.113 115.59C158.671 114.868 159.456 114.356 160.341 114.136C161.304 113.942 162.454 114.267 163.6 115.982C163.696 116.142 163.764 116.317 163.8 116.5C163.474 119.925 162.818 123.311 161.84 126.61C159.245 135.236 154.408 143.019 147.822 149.165C147.421 149.549 147.049 149.971 146.62 150.328L145.319 151.388L142.717 153.494L139.836 155.411L138.529 156.35L137.04 157.135L134.057 158.624L130.929 159.877L129.365 160.503L127.753 160.984L124.529 161.917C115.751 163.994 106.585 163.76 97.9237 161.239C93.6038 159.989 89.4658 158.18 85.6148 155.858L82.8258 153.962C81.9323 153.43 81.0787 152.833 80.2716 152.177L79.1141 151.097C78.1383 150.203 77.219 149.249 76.3614 148.241C74.0618 145.623 72.1109 142.718 70.5576 139.599C69.6806 137.967 69.0356 136.22 68.6414 134.409C68.4584 133.378 68.5787 133.062 68.9873 133.137C69.755 133.385 71.3676 135.538 73.4387 137.966C73.3024 137.649 75.6044 140.688 78.4395 143.283C79.7157 144.504 81.0815 145.627 82.5254 146.644L84.4814 148.052C85.1654 148.614 85.8887 149.126 86.6458 149.585L87.7466 150.317L88.5551 150.86C88.9603 151.135 89.3871 151.377 89.8311 151.583L92.4608 152.96C93.3343 153.395 94.2314 153.782 95.1478 154.117C96.9339 154.868 98.7677 155.5 100.637 156.009C101.579 156.27 102.536 156.478 103.502 156.631C104.454 156.851 105.417 157.018 106.388 157.131C108.332 157.38 110.291 157.501 112.251 157.493C122.116 157.536 131.729 154.385 139.653 148.51C147.577 142.635 153.386 134.352 156.211 124.901C157.078 121.975 157.662 118.973 157.954 115.935Z" fill="#1D1D1D"/>
<path d="M147.936 70.4239C147.948 70.4873 147.944 70.5524 147.926 70.6141C147.907 70.6759 147.875 70.7326 147.832 70.7798C147.435 71.5887 146.789 72.2485 145.988 72.6616C145.089 73.0681 143.9 73.0425 142.395 71.4787C142.263 71.3485 142.159 71.1924 142.09 71.0203C141.706 67.4669 141.894 63.8747 142.648 60.3809C143.613 55.9963 145.367 51.824 147.827 48.068C149.019 46.2042 150.355 44.4355 151.82 42.7778C155.512 38.5348 160.114 35.1791 165.282 32.9605C170.451 30.7418 176.053 29.7174 181.672 29.9635C182.619 30.0004 183.692 30.126 184.695 30.2008L186.227 30.332C186.294 30.3288 186.375 30.325 186.415 30.3232L186.424 30.5118L186.442 30.8891L186.585 31.652L187.117 34.6654L187.337 36.4781C187.54 38.7224 187.559 40.9795 187.395 43.2269C187.195 45.456 186.81 47.6645 186.244 49.8295C185.651 51.9944 184.873 54.1043 183.918 56.1357C182.019 60.1993 179.416 63.8953 176.23 67.0533L174.82 68.3747L173.61 69.3628C172.78 70.0226 171.916 70.6397 171.023 71.2117L169.587 71.9943L167.935 72.7599C167.286 73.0197 166.61 73.2942 165.799 73.5751C164.109 74.1279 162.376 74.5384 160.617 74.8022C158.86 75.0532 157.082 75.1361 155.309 75.0495C153.434 75.0558 151.57 74.7644 149.786 74.1861C148.797 73.827 148.58 73.5131 148.878 73.2426C149.474 72.7018 152.15 72.4556 155.225 71.7992C157.551 71.3038 159.831 70.6149 162.042 69.7397C163.609 69.0628 165.108 68.2379 166.519 67.2762C167.67 66.4933 168.396 65.8384 168.396 65.8384C169.089 65.347 169.767 64.8428 170.417 64.2859C170.752 64.0239 171.073 63.743 171.377 63.4445L172.062 62.8049C172.399 62.4922 172.72 62.1397 173.043 61.8141C175.609 59.1136 177.68 55.982 179.161 52.563C179.905 50.8619 180.488 49.0941 180.9 47.2834C181.329 45.4996 181.588 43.679 181.672 41.8461C181.761 39.9872 181.675 38.1241 181.413 36.2815L181.394 35.8638L180.612 35.9002C175.952 35.8114 171.329 36.757 167.078 38.6688C162.826 40.5807 159.052 43.4113 156.025 46.9569C154.784 48.3786 153.653 49.894 152.645 51.4893C150.624 54.6167 149.172 58.0761 148.354 61.7085C147.759 64.5738 147.618 67.5148 147.936 70.4239Z" fill="#1D1D1D"/>
<path d="M108.216 9.75525C108.163 9.71668 108.119 9.66755 108.086 9.61097C108.053 9.55439 108.032 9.49159 108.025 9.42657C107.718 8.55469 107.707 7.60616 107.994 6.72742C108.356 5.81932 109.264 5.00738 111.33 5.00565C111.517 5.00814 111.701 5.04531 111.875 5.11528C114.623 7.32157 117.052 9.8987 119.091 12.7729C123.044 18.3862 125.375 24.9801 125.828 31.8309C126.28 38.6818 124.837 45.5249 121.657 51.6096C120.594 53.6363 119.361 55.5686 117.969 57.3851C117.24 58.2562 116.526 59.1537 115.726 59.9606C115.34 60.3702 114.955 60.7933 114.527 61.1778L113.866 61.7622C113.537 62.0854 113.191 62.3901 112.828 62.6747L110.437 64.69L110.139 64.947C110.044 64.9514 109.93 64.8217 109.82 64.7728L109.178 64.3301L107.894 63.4312L106.611 62.5458L105.77 61.8828C105.312 61.5476 104.872 61.1896 104.45 60.81C102.719 59.3324 101.129 57.6978 99.6993 55.9272C98.2824 54.1751 97.0329 52.2938 95.9672 50.3083C94.8751 48.3116 93.9771 46.2146 93.2855 44.0463C91.8885 39.7167 91.2923 35.1687 91.526 30.6253L91.4902 29.8573L91.472 29.4665L91.5575 28.6929C91.5916 28.1784 91.6534 27.6662 91.7425 27.1584C91.8835 26.1256 92.0795 25.1173 92.316 24.107C93.3668 20.5977 94.992 17.287 97.1258 14.3093C98.1724 12.8399 99.3567 11.4735 100.662 10.2287C101.947 8.85574 103.449 7.70445 105.108 6.82133C106.059 6.35845 106.44 6.42172 106.456 6.75856C106.493 7.56699 104.753 9.633 103.123 12.315C101.885 14.3564 100.801 16.4876 99.882 18.6909C99.2382 20.2918 98.7369 21.9463 98.3839 23.6353C98.2401 24.3171 98.1048 24.8906 98.0569 25.3114L97.9652 25.9503C97.7609 26.7835 97.6792 27.638 97.543 28.4815L97.414 29.7703L97.4284 30.0802C97.4284 30.0802 97.4347 30.215 97.441 30.3497L97.4573 30.7L97.3988 32.0531C97.4011 33.9409 97.5521 35.8256 97.8504 37.6898C98.1865 39.5447 98.6735 41.369 99.3063 43.1447C99.9721 44.911 100.779 46.6209 101.719 48.258C102.682 49.8758 103.778 51.4101 104.997 52.8448C106.235 54.2688 107.593 55.5834 109.056 56.7741L109.897 57.4371L110.065 57.2807C115.6 52.0933 119.076 45.0817 119.853 37.5357C120.631 29.9897 118.657 22.4168 114.296 16.21C112.578 13.787 110.532 11.6146 108.216 9.75525Z" fill="#1D1D1D"/>
<path d="M38.4569 55.1347C38.4625 55.256 38.4644 55.2964 38.4744 55.512C38.2832 56.3946 37.814 57.1926 37.1357 57.7888C36.3671 58.3918 35.1774 58.6497 33.3853 57.572C33.2348 57.4689 33.1014 57.343 32.9898 57.1988C31.748 53.8934 30.9819 50.4284 30.7144 46.9075C30.663 45.8026 30.6109 44.6843 30.5594 43.5795L30.5211 42.7576L30.4998 42.2995L30.5589 41.5405C30.6331 40.5244 30.7214 39.521 30.8225 38.5036L30.8952 37.744C30.8914 37.6632 30.8908 37.6497 31.012 37.6441L31.2007 37.6353L31.5779 37.6177L33.077 37.3318L34.6935 36.9594C35.1613 36.8566 35.7792 36.7873 35.9537 36.7657C37.0536 36.6064 38.1706 36.5274 39.2755 36.4759C43.7244 36.2848 48.1713 36.8964 52.4035 38.2813C58.7776 40.3666 64.4729 44.129 68.8919 49.1738C73.3108 54.2186 76.2904 60.3598 77.5181 66.953C77.9097 69.1366 78.1212 71.3487 78.1503 73.567C78.1766 74.1329 78.1215 74.6891 78.1068 75.2434L78.1326 75.7958C78.1439 76.0384 78.1558 76.2944 78.0734 76.5548L77.9416 78.0732L77.8098 79.5917L77.8274 79.969C77.833 80.0902 77.8406 80.2519 77.6635 80.2197L76.914 80.3626L73.9147 80.9074C73.6452 80.92 73.4162 80.9307 73.1903 81.0087L72.7322 81.03L71.9103 81.0683C71.3578 81.0941 70.7919 81.1204 70.2395 81.1462C69.1347 81.1976 68.0298 81.2491 66.9212 81.2197C64.6991 81.1411 62.4873 80.8783 60.3086 80.4341L58.4382 79.9946L56.9457 79.551C55.9465 79.26 54.9838 78.8862 54.0077 78.5131L52.5115 77.9887C51.325 77.3407 50.1779 76.6231 49.0761 75.8397C46.186 73.8033 43.6627 71.2909 41.6139 68.4096C40.4566 66.9299 39.5492 65.2708 38.9275 63.4982C38.6238 62.4861 38.757 62.1558 39.1342 62.1382C39.9116 62.3045 41.7317 64.2722 44.1214 66.2944C45.9536 67.8344 47.8965 69.2377 49.9343 70.493C51.4234 71.359 52.9751 72.1127 54.5763 72.7478L56.1823 73.3077C56.3842 73.3855 56.5902 73.4526 56.7993 73.5085C57.6099 73.8083 58.4199 74.0946 59.2403 74.313C59.6514 74.4423 60.0754 74.5576 60.4846 74.6466L61.3986 74.847C61.8361 74.9617 62.298 75.0212 62.7611 75.1076C64.5789 75.4104 66.4201 75.5506 68.2628 75.5265C69.179 75.4838 70.0953 75.4411 70.9576 75.4009L72.2332 75.247L72.2691 73.9895C72.2478 73.5314 72.2264 73.0733 72.2064 72.6422C72.145 70.7993 71.915 68.9659 71.5191 67.1649C70.7423 63.5609 69.3293 60.1242 67.3464 57.016C64.3867 52.3186 60.2354 48.4891 55.315 45.9172C50.3945 43.3453 44.8806 42.1227 39.3342 42.374L37.9868 42.4368L36.6438 42.5939L36.5361 42.5989L36.5048 43.6671C36.5475 44.5833 36.5228 45.5026 36.6303 46.3618C36.8209 49.3578 37.4358 52.3116 38.4569 55.1347Z" fill="#1D1D1D"/>
<path d="M10.2604 115.97C10.2218 116.022 10.1727 116.067 10.1161 116.1C10.0595 116.132 9.99675 116.153 9.93173 116.16C9.05985 116.467 8.11132 116.478 7.23259 116.192C6.32511 115.842 5.49907 114.922 5.4845 112.87C5.4921 112.682 5.53381 112.498 5.6076 112.325C7.81073 109.562 10.3873 107.12 13.2633 105.068C20.7765 99.7684 29.9764 97.4174 39.1109 98.4624C43.6482 98.9264 48.0593 100.232 52.1181 102.312C54.14 103.369 56.0638 104.603 57.8667 106.001C58.7373 106.717 59.6347 107.431 60.4551 108.23C60.8647 108.616 61.2878 109.001 61.6716 109.416L62.2542 110.037C62.3965 110.192 62.7784 110.566 63.1084 110.982L65.1103 113.374L65.3672 113.672L65.4954 113.815C65.4954 113.815 65.5947 113.918 65.5029 113.977L65.0602 114.618L64.1613 115.903L63.2759 117.186C63.1243 117.409 62.9708 117.592 62.8307 117.774L62.5506 118.138C62.1928 118.573 61.8638 119.048 61.4816 119.538C60.0055 121.27 58.376 122.864 56.6129 124.302C54.8536 125.712 52.9679 126.957 50.9798 128.021C48.9842 129.122 46.8878 130.029 44.7191 130.73C42.5464 131.45 40.3089 131.956 38.0381 132.243C35.7852 132.564 33.5068 132.67 31.2338 132.56L30.4658 132.596L30.0751 132.614L29.3901 132.403C28.8743 132.346 28.3598 132.316 27.8556 132.218C26.8228 132.077 25.8016 131.895 24.7914 131.658C21.2814 130.613 17.9672 128.997 14.9815 126.876C13.5463 125.843 12.2047 124.685 10.972 123.417C9.59046 122.143 8.43413 120.645 7.55178 118.985C7.0889 118.035 7.15217 117.654 7.48901 117.638C8.29744 117.6 10.3898 119.326 13.0449 120.958C15.0918 122.185 17.227 123.259 19.433 124.171C21.0344 124.809 22.6887 125.306 24.3767 125.655C25.0586 125.799 25.6314 125.921 26.0522 125.969L26.6911 126.061C27.5237 126.251 28.3794 126.36 29.2223 126.483L30.5105 126.598L30.8339 126.583L31.4402 126.555C31.9118 126.533 32.3877 126.605 32.86 126.597C34.7648 126.651 36.6707 126.539 38.5562 126.264C40.4108 125.926 42.235 125.44 44.0111 124.808C47.5523 123.487 50.8278 121.542 53.6818 119.064C55.1123 117.829 56.4273 116.466 57.6105 114.992L58.1835 114.25L57.9419 113.991C52.7324 108.427 45.682 104.942 38.0982 104.18C30.5143 103.418 22.9116 105.433 16.6998 109.85C14.2799 111.581 12.1126 113.641 10.2604 115.97Z" fill="#1D1D1D"/>
<path d="M53.8844 159.388C53.837 159.434 53.7804 159.468 53.7185 159.49C53.6566 159.511 53.5909 159.519 53.5256 159.513C52.6223 159.666 51.694 159.514 50.886 159.082C50.0653 158.567 49.4645 157.555 49.8003 155.487C49.8416 155.305 49.9159 155.133 50.0196 154.977C52.6986 152.679 55.6866 150.767 58.8965 149.298C62.8988 147.461 67.1943 146.347 71.5845 146.006C72.6894 145.954 73.7808 145.904 74.8721 145.853L75.6972 145.882L76.1822 145.859L76.9136 145.906L79.9101 146.172L80.669 146.231C80.8442 146.223 80.785 146.401 80.8304 146.507L80.848 146.884L81.1192 148.357L81.3909 149.843C81.4029 150.099 81.4148 150.355 81.5198 150.58L81.5461 151.146C81.7048 152.232 81.7832 153.336 81.8341 154.427C82.0513 159.377 81.2805 164.32 79.5666 168.969C77.8527 173.618 75.23 177.879 71.8516 181.503C68.4732 185.127 64.4068 188.042 59.8897 190.078C55.3725 192.113 50.4952 193.229 45.5423 193.359C44.9899 193.385 44.4375 193.41 43.8954 193.368L43.0703 193.339C42.8143 193.351 42.208 193.379 41.7167 193.267L38.7201 193.002L38.3429 193.019L38.1677 193.027C38.1677 193.027 38.1627 192.92 38.1602 192.866L38.0313 192.129L37.7596 190.643L37.5082 189.304C37.4622 189.074 37.4288 188.841 37.4081 188.607L37.2865 187.735C37.262 187.209 37.2382 186.697 37.1335 186.189C37.0851 185.152 37.0368 184.114 36.9885 183.077L37.1428 181.463C37.302 180.121 37.5375 178.789 37.8482 177.473C38.6841 174.048 40.0886 170.788 42.0033 167.828C42.9766 166.181 44.2233 164.712 45.6898 163.483C46.5233 162.824 46.914 162.805 47.0265 163.192C47.1854 163.994 46.0006 166.386 45.0184 169.362C44.2586 171.626 43.676 173.947 43.2758 176.302C43.0245 178.007 42.9015 179.728 42.9081 181.451C42.9407 182.151 42.9708 182.798 42.9871 183.148C43.0035 183.499 43.0173 183.795 43.0173 183.795C43.0574 184.657 43.0976 185.52 43.1372 186.368L43.2745 187.577L44.0156 187.543C44.9221 187.582 45.8345 187.458 46.7135 187.485C48.5204 187.359 50.3141 187.085 52.0766 186.668C59.2097 184.928 65.511 180.752 69.8915 174.86C74.2719 168.968 76.4563 161.73 76.0669 154.399C76.0456 153.94 76.0249 153.496 76.0042 153.051L75.8662 151.829L74.6351 151.778C73.7189 151.821 72.8161 151.863 71.9403 151.904C68.2812 152.163 64.6951 153.057 61.3419 154.544C58.6431 155.805 56.1331 157.435 53.8844 159.388Z" fill="#1D1D1D"/>
<path d="M106.379 161.898C106.373 161.764 106.371 161.723 106.58 161.578C107.188 160.91 107.996 160.455 108.883 160.283C109.849 160.157 111.014 160.521 112.018 162.365C112.094 162.534 112.144 162.714 112.164 162.898C111.204 168.448 109.007 173.71 105.735 178.295C102.464 182.879 98.2014 186.668 93.2652 189.38C91.5631 190.3 89.7945 191.091 87.9742 191.747C87.6693 191.869 87.231 192.024 86.8048 192.152L85.5534 192.535L84.289 192.931L83.6639 193.136C83.5561 193.141 83.4515 193.213 83.3572 193.218L83.1817 192.929L81.7282 190.715C81.2638 190.02 80.7066 189.074 80.5721 188.797C78.6773 185.45 77.315 181.828 76.5342 178.061C76.13 176.143 75.8856 174.194 75.8037 172.235C75.8037 172.235 75.7754 171.629 75.8631 170.612L76.0221 168.808C76.1126 168.143 76.2423 167.448 76.3503 166.579C77.0092 163.115 78.2217 159.78 79.9411 156.703C80.829 155.009 81.9945 153.476 83.3892 152.167C84.1809 151.482 84.5845 151.45 84.724 151.835C84.8816 152.611 83.8616 155.062 83.0167 158.085C82.4082 160.397 81.9493 162.746 81.6429 165.117C81.4804 166.833 81.4524 168.559 81.5593 170.279C81.592 170.979 81.6221 171.626 81.7058 171.973L81.7359 172.62C81.8425 174.036 82.0433 175.443 82.3373 176.832C82.9993 180.008 84.153 183.061 85.7565 185.882L85.9486 186.237L86.0295 186.234C87.5471 185.676 89.0233 185.012 90.4469 184.245C96.1616 181.102 100.762 176.264 103.615 170.399C104.929 167.708 105.859 164.847 106.379 161.898Z" fill="#1D1D1D"/>
<path d="M72.5907 143.002C72.6482 142.971 72.712 142.953 72.7773 142.95C72.8427 142.947 72.9079 142.958 72.968 142.984C73.8691 142.947 74.7591 143.194 75.5124 143.689C76.283 144.288 76.8464 145.369 76.2516 147.382C76.1896 147.556 76.1016 147.719 75.9906 147.867C73.1027 149.894 69.9467 151.508 66.6135 152.665C57.4293 155.845 47.3665 155.316 38.5665 151.19C38.2632 151.056 37.8348 150.846 37.461 150.647L36.2843 150.027L35.1218 149.42L34.5267 149.11C34.4328 149.071 34.3443 149.021 34.2632 148.96L34.329 148.633L34.8975 146.054C35.0619 145.236 35.3363 144.17 35.4309 143.882C36.4581 140.179 38.0522 136.656 40.1566 133.44C41.2278 131.793 42.4335 130.238 43.7613 128.79C43.7613 128.79 44.1865 128.351 44.9519 127.681L46.3293 126.523L48.1438 125.183C51.0692 123.177 54.2999 121.659 57.7105 120.686C59.5023 120.125 61.3718 119.851 63.2494 119.874C64.3066 119.96 64.6156 120.216 64.3882 120.55C63.9596 121.205 61.4955 122.225 58.7589 123.77C56.6939 124.971 54.7083 126.304 52.8144 127.76C51.4934 128.865 50.2541 130.065 49.1062 131.349C48.6303 131.857 48.2885 132.346 48.0193 132.656L47.6108 133.161C46.6953 134.246 45.8465 135.386 45.0692 136.574C43.2923 139.287 41.9501 142.26 41.0913 145.388L40.9742 145.771L41.055 145.767C42.5209 146.456 44.0373 147.031 45.5911 147.487C50.1454 148.8 54.9362 149.075 59.6108 148.292C64.2854 147.508 68.7248 145.687 72.6023 142.961L72.5907 143.002Z" fill="#1D1D1D"/>
<path d="M38.1259 85.1539C38.1259 85.1539 38.0451 85.1576 37.9104 85.1639C37.0321 84.734 36.3004 84.0543 35.807 83.2101C35.3137 82.3658 35.0806 81.3947 35.1372 80.4185C35.1546 80.308 35.1908 80.2013 35.244 80.103C36.6177 79.3042 38.0473 78.6058 39.5217 78.0133C42.6371 76.7219 45.9123 75.8562 49.259 75.4396C52.581 75.0485 55.9407 75.11 59.2462 75.6225C60.7439 75.839 62.2251 76.158 63.6792 76.5772L64.4096 76.8943L66.1942 77.8104C67.7146 78.6559 69.1235 79.688 70.3882 80.8827C72.4727 82.73 72.6821 83.7465 72.1698 84.0539C71.0325 84.2564 69.8612 84.1331 68.791 83.6982C68.8916 83.8286 67.1612 83.207 65.3729 82.7907C64.4711 82.5627 63.5467 82.4302 62.8784 82.2858C62.21 82.1414 61.7365 82.123 61.7365 82.123C60.5316 81.795 59.3066 81.5454 58.0694 81.3756C52.5207 80.5905 46.8629 81.2968 41.6776 83.4221C40.457 83.9209 39.2706 84.4994 38.1259 85.1539Z" fill="#1D1D1D"/>
<path d="M62.1222 105.749C62.257 105.742 62.2974 105.741 62.4415 105.936C63.1129 106.548 63.5677 107.361 63.7377 108.253C63.8631 109.205 63.4988 110.37 61.6551 111.374C61.4898 111.462 61.3088 111.516 61.1225 111.534C57.6525 110.926 54.2842 109.838 51.1146 108.301L50.6305 108.053C48.9013 107.158 47.2421 106.134 45.6672 104.99C44.204 103.789 42.8458 102.465 41.6075 101.033C40.4577 99.6963 39.4118 98.2734 38.4791 96.777C37.5617 95.2672 36.7741 93.6822 36.1249 92.0391C35.3562 90.324 34.8741 88.4945 34.6978 86.6233C34.6488 85.5724 34.8506 85.2659 35.2084 85.4113C35.9536 85.7547 37.2106 88.0996 39.0705 90.6326C40.4789 92.5649 42.0308 94.3884 43.7131 96.0875C44.9428 97.2928 46.2724 98.3917 47.6875 99.3727C48.2735 99.7775 48.7479 100.106 49.0813 100.307L49.6372 100.646C50.8086 101.447 52.0286 102.175 53.2901 102.825L53.7043 103.022C56.3718 104.313 59.2044 105.23 62.1222 105.749Z" fill="#1D1D1D"/>
<path d="M81.0594 72.0001C81.0895 72.0555 81.1066 72.117 81.1096 72.18C81.1125 72.243 81.1011 72.3059 81.0763 72.3639C81.1156 73.2652 80.8688 74.1558 80.3712 74.9083C79.7725 75.6788 78.6915 76.2423 76.6788 75.6474C76.5039 75.5878 76.3401 75.4996 76.194 75.3865C74.1644 72.5002 72.5493 69.3438 71.3957 66.0094C68.889 58.6975 68.7187 50.787 70.9083 43.374C71.452 41.5306 72.1309 39.7298 72.9393 37.9862C73.0737 37.6829 73.2839 37.268 73.4954 36.8801L74.1029 35.7175L74.7097 34.5415L75.0202 33.9599C75.0158 33.8656 75.1045 33.7399 75.1828 33.6822L75.4971 33.7621L78.0757 34.3306C78.8935 34.4951 79.9589 34.756 80.2475 34.8641C83.9542 35.8828 87.4778 37.4775 90.6895 39.5898C92.3413 40.66 93.9015 41.8655 95.3539 43.1938C95.3539 43.1938 95.7782 43.6062 96.4485 44.3716L97.607 45.7625L98.9473 47.577C100.952 50.4976 102.471 53.7238 103.443 57.1302C104.012 58.9204 104.286 60.791 104.255 62.6691C104.169 63.7263 103.914 64.0353 103.593 63.8207C102.925 63.3927 101.905 60.9287 100.36 58.192C99.1622 56.1249 97.8292 54.1391 96.3698 52.2476C95.2678 50.9235 94.0681 49.684 92.7808 48.5394C92.2719 48.05 91.7833 47.7082 91.4744 47.4525L90.9692 47.0439C89.8918 46.1244 88.7562 45.2752 87.5695 44.5017C84.8541 42.7174 81.8751 41.3707 78.7417 40.511L78.2876 40.3296L78.2914 40.4105C77.6007 41.8753 77.0257 43.392 76.5718 44.9466C75.2587 49.5008 74.9837 54.2916 75.767 58.9662C76.5503 63.6408 78.372 68.0803 81.0979 71.9578L81.0594 72.0001Z" fill="#1D1D1D"/>
<path d="M118.311 61.5282C118.307 61.5925 118.288 61.655 118.256 61.7105C118.223 61.7661 118.178 61.813 118.123 61.8475C117.504 62.5092 116.695 62.9621 115.807 63.1436C114.854 63.269 113.689 62.8912 112.685 61.0611C112.604 60.8932 112.55 60.7133 112.526 60.5284C113.13 57.0534 114.218 53.6802 115.759 50.5071C119.138 43.5378 124.605 37.7942 131.399 34.0744C133.1 33.1561 134.869 32.3695 136.691 31.7214C137.073 31.5657 137.463 31.4303 137.86 31.3159L139.192 30.9162L140.443 30.5204L141.082 30.3286C141.178 30.2826 141.282 30.2548 141.389 30.2468L141.563 30.5222L143.018 32.75C143.482 33.444 144.039 34.3902 144.174 34.6675C146.08 38.0058 147.447 41.6243 148.224 45.3893C148.633 47.3118 148.882 49.2648 148.969 51.2284C148.969 51.2284 148.997 51.8347 148.91 52.8515C148.933 53.35 148.813 53.9633 148.75 54.6413L148.408 56.8718C147.764 60.3434 146.551 63.6849 144.818 66.7612C143.903 68.4415 142.72 69.9608 141.314 71.2589C140.51 71.958 140.12 71.9897 139.98 71.6046C139.809 70.8294 140.843 68.3777 141.687 65.3407C142.29 63.0275 142.748 60.6792 143.061 58.3092C143.216 56.5974 143.244 54.8765 143.145 53.1606C143.112 52.46 143.082 51.8132 142.985 51.4667C142.888 51.1201 142.955 50.8199 142.955 50.8199C142.847 49.4049 142.65 47.9979 142.367 46.6074C141.693 43.4136 140.53 40.3432 138.918 37.505L138.713 37.15L138.632 37.1537C133.399 39.0688 128.765 42.3311 125.197 46.6109C121.629 50.8907 119.253 56.0364 118.311 61.5282Z" fill="#1D1D1D"/>
<path d="M152.063 80.4669C152.008 80.497 151.946 80.5142 151.883 80.5171C151.82 80.52 151.758 80.5087 151.7 80.4839C150.796 80.525 149.903 80.273 149.154 79.7653C148.385 79.18 147.82 78.0855 148.416 76.0864C148.475 75.9111 148.563 75.7471 148.677 75.6016C153.275 72.362 158.543 70.1975 164.09 69.2682C169.638 68.339 175.323 68.6687 180.726 70.2331C182.565 70.784 184.361 71.4675 186.101 72.2782C186.479 72.4392 186.848 72.6204 187.207 72.8209L188.383 73.4277L189.546 74.0487L190.127 74.3457C190.225 74.3902 190.318 74.4447 190.404 74.5083L190.339 74.8354L189.756 77.4011C189.618 78.1343 189.44 78.8593 189.222 79.573C188.201 83.2828 186.607 86.8105 184.497 90.0284C183.431 91.6751 182.23 93.2305 180.906 94.6787C180.906 94.6787 180.481 95.1171 179.716 95.7874L178.338 96.9453L176.51 98.2728C173.595 100.288 170.367 101.808 166.956 102.769C165.166 103.337 163.296 103.611 161.417 103.58C160.361 103.508 160.052 103.252 160.266 102.918C160.707 102.25 163.159 101.244 165.895 99.699C167.956 98.487 169.941 97.1499 171.839 95.6952C173.169 94.6004 174.41 93.4002 175.547 92.1062C176.037 91.5973 176.378 91.1088 176.634 90.7998L177.043 90.2947C177.966 89.2199 178.815 88.0841 179.585 86.895C181.366 84.1825 182.713 81.2086 183.576 78.0806L183.679 77.6842C182.206 77.0062 180.686 76.4362 179.13 75.9787C172.87 74.1493 166.195 74.314 160.032 76.4499C157.202 77.4128 154.52 78.7648 152.063 80.4669Z" fill="#1D1D1D"/>
<path d="M162.534 117.72C162.413 117.726 162.372 117.728 162.214 117.519C161.55 116.907 161.096 116.101 160.919 115.216C160.792 114.25 161.17 113.084 163 112.081C163.17 112.006 163.35 111.957 163.534 111.935C169.078 112.891 174.336 115.082 178.917 118.347C183.499 121.612 187.287 125.866 190.001 130.794C190.915 132.499 191.706 134.267 192.367 136.085C192.489 136.39 192.632 136.842 192.759 137.255L193.155 138.506L193.555 139.838L193.746 140.463C193.767 140.565 193.772 140.67 193.76 140.773L193.485 140.948L191.257 142.402C190.563 142.867 189.617 143.424 189.353 143.558C186 145.405 182.381 146.721 178.624 147.46C176.702 147.869 174.749 148.118 172.785 148.205C172.785 148.205 172.179 148.233 171.163 148.159L169.373 147.999L167.142 147.658C163.673 147.005 160.333 145.792 157.253 144.067C155.583 143.201 154.066 142.068 152.762 140.712C152.064 139.921 152.031 139.517 152.42 139.445C153.195 139.274 155.646 140.294 158.683 141.138C160.995 141.75 163.344 142.213 165.715 142.525C167.427 142.677 169.148 142.701 170.863 142.596C171.577 142.563 172.21 142.533 172.571 142.449L173.204 142.42C174.625 142.313 176.036 142.112 177.43 141.818C180.607 141.16 183.661 140.006 186.48 138.398L186.835 138.206L186.831 138.125C186.276 136.601 185.606 135.12 184.829 133.695C181.693 127.974 176.854 123.372 170.983 120.527C168.311 119.201 165.468 118.256 162.534 117.72Z" fill="#1D1D1D"/>
<path d="M143.593 151.469C143.562 151.411 143.544 151.347 143.541 151.282C143.538 151.217 143.55 151.152 143.576 151.091C143.539 150.188 143.791 149.297 144.294 148.546C144.879 147.776 145.975 147.226 147.987 147.807C148.159 147.87 148.319 147.963 148.459 148.082C150.498 150.958 152.114 154.111 153.256 157.446C155.795 164.761 155.994 172.685 153.826 180.118C153.278 181.958 152.594 183.754 151.781 185.493C151.621 185.875 151.44 186.249 151.239 186.612L150.632 187.774L150.025 188.95L149.714 189.532C149.671 189.627 149.617 189.715 149.551 189.796L149.224 189.73L146.659 189.161C145.828 188.997 144.775 188.722 144.487 188.628C140.779 187.601 137.253 186.007 134.032 183.903C132.385 182.832 130.829 181.626 129.381 180.298C129.381 180.298 128.942 179.873 128.272 179.107L127.114 177.73L125.787 175.915C123.774 172.999 122.255 169.772 121.291 166.362C120.723 164.567 120.448 162.692 120.479 160.809C120.551 159.753 120.807 159.444 121.142 159.671C121.81 160.099 122.816 162.564 124.361 165.301C125.591 167.362 126.946 169.346 128.419 171.242C129.52 172.566 130.72 173.806 132.008 174.95C132.517 175.439 133.005 175.768 133.314 176.037L133.819 176.446C134.897 177.364 136.033 178.213 137.219 178.988C139.916 180.769 142.871 182.126 145.981 183.009L146.378 183.125L146.374 183.044C147.051 181.574 147.625 180.058 148.094 178.508C149.919 172.246 149.749 165.572 147.609 159.41C146.649 156.588 145.297 153.915 143.593 151.469Z" fill="#1D1D1D"/>
<path d="M127.245 193.563C127.245 193.497 127.259 193.433 127.287 193.373C127.314 193.314 127.354 193.261 127.404 193.218C127.958 192.511 128.725 192.002 129.591 191.766C130.553 191.545 131.714 191.815 132.889 193.557C132.989 193.715 133.062 193.89 133.102 194.073C132.806 197.59 132.022 201.049 130.772 204.35C129.172 208.518 126.841 212.367 123.888 215.716C123.144 216.547 122.385 217.366 121.57 218.119L120.857 218.774C120.509 219.114 120.091 219.43 119.715 219.759L118.573 220.744L117.988 221.243L117.703 221.486C117.595 221.491 117.512 221.738 117.397 221.595L114.885 219.849C114.48 219.557 114.007 219.268 113.67 218.974L112.969 218.426C112.074 217.765 111.268 216.992 110.437 216.248C106.784 212.795 103.868 208.638 101.863 204.029C99.8586 199.419 98.8073 194.451 98.7724 189.425C98.7376 184.398 99.7199 179.417 101.66 174.78C103.601 170.143 106.459 165.946 110.064 162.442L110.671 161.86C110.827 161.732 111.149 161.393 111.565 161.049L113.904 159.09L114.489 158.604C114.489 158.604 114.597 158.599 114.638 158.597L114.804 158.697L115.112 158.926L116.367 159.786L117.623 160.659C118.027 160.924 118.505 161.32 118.658 161.421L119.569 162.135L120.146 162.634C120.54 162.98 120.947 163.313 121.315 163.674C122.064 164.381 122.813 165.103 123.497 165.881C124.684 167.36 125.742 168.936 126.661 170.595C128.395 173.668 129.592 177.014 130.2 180.489C130.59 182.327 130.678 184.215 130.461 186.081C130.294 187.129 130.025 187.452 129.715 187.169C129.057 186.673 128.317 184.115 127.022 181.259C126.033 179.081 124.888 176.977 123.596 174.964C122.613 173.534 121.512 172.19 120.303 170.945C119.82 170.427 119.409 170.001 119.099 169.732L118.633 169.281C117.459 168.05 116.187 166.917 114.829 165.893L114.195 166.49C113.845 166.803 113.536 167.128 113.214 167.467C111.939 168.801 110.79 170.252 109.784 171.799C105.688 178.027 103.931 185.504 104.827 192.904C105.723 200.304 109.214 207.146 114.678 212.216C115.368 212.832 116.088 213.5 116.8 213.994L117.081 214.224L117.675 213.656C118.344 213.02 118.98 212.351 119.58 211.65C122.016 208.866 123.938 205.672 125.258 202.217C126.313 199.437 126.981 196.525 127.245 193.563Z" fill="#1D1D1D"/>
<path d="M153.928 148.07C153.863 148.079 153.798 148.073 153.736 148.052C153.674 148.032 153.618 147.997 153.571 147.952C152.761 147.54 152.109 146.873 151.714 146.054C151.348 145.153 151.414 143.961 152.899 142.501C153.036 142.377 153.197 142.282 153.372 142.223C156.886 141.897 160.428 142.082 163.889 142.772C172.834 144.529 180.83 149.491 186.374 156.727C187.738 158.525 188.944 160.439 189.976 162.446C190.99 164.46 191.828 166.558 192.482 168.716C193.126 170.902 193.573 173.141 193.82 175.406C193.939 176.521 194.018 177.638 193.977 178.774C194.003 179.34 194.029 179.892 193.975 180.462L193.94 181.449C193.962 181.934 193.852 182.466 193.822 182.981L193.691 184.526L193.619 185.286L193.637 185.676L193.646 185.865C193.583 185.875 193.52 185.878 193.457 185.874L190.404 186.421C189.908 186.512 189.373 186.618 188.93 186.665L188.081 186.705C187.515 186.731 186.966 186.838 186.401 186.864C184.148 187.034 181.885 186.985 179.642 186.72C175.149 186.225 170.786 184.909 166.769 182.837C162.752 180.766 159.142 177.989 156.111 174.637L155.598 174.067L155.341 173.768L154.854 173.156C154.525 172.767 154.195 172.363 153.892 171.932L152.98 170.624L152.136 169.313C151.237 167.647 150.483 165.907 149.882 164.112C149.323 162.444 148.895 160.734 148.604 158.999C148.322 157.251 148.199 155.481 148.236 153.71C148.171 151.83 148.416 149.953 148.963 148.153C149.308 147.165 149.635 146.934 149.892 147.232C150.446 147.828 150.732 150.474 151.536 153.529C152.103 155.852 152.846 158.128 153.757 160.339C154.433 161.924 155.25 163.445 156.197 164.884C156.575 165.474 156.895 165.959 157.153 166.284L157.542 166.806C157.981 167.542 158.525 168.205 158.99 168.899L159.806 169.901L160.007 170.148L160.419 170.602L161.385 171.623C164.009 174.299 167.087 176.487 170.477 178.086C172.177 178.863 173.936 179.503 175.738 180.002C177.526 180.457 179.346 180.774 181.183 180.95C183.048 181.09 184.922 181.075 186.785 180.905L188.128 180.748L188.159 179.396C188.137 178.924 188.115 178.453 188.096 178.049C188.053 177.119 188.009 176.176 187.858 175.251C187.618 173.4 187.207 171.575 186.632 169.799C185.503 166.23 183.737 162.895 181.42 159.955C178.191 155.819 173.976 152.558 169.161 150.473C164.345 148.388 159.084 147.544 153.858 148.02L153.928 148.07Z" fill="#1D1D1D"/>
<path d="M167.212 108.279C167.135 108.378 167.096 108.406 166.883 108.457C166.008 108.763 165.054 108.76 164.182 108.448C163.273 108.085 162.475 107.177 162.486 105.097C162.502 104.915 162.544 104.735 162.61 104.564C164.855 101.842 167.47 99.4475 170.38 97.451C176.009 93.5878 182.587 91.3388 189.402 90.9475C196.218 90.5562 203.01 92.0375 209.044 95.2311C211.035 96.3027 212.932 97.5425 214.712 98.9369C215.583 99.6525 216.453 100.368 217.274 101.167C217.691 101.547 218.088 101.947 218.464 102.367L219.046 102.975C219.357 103.285 219.701 103.714 220.03 104.104L222.031 106.482L222.16 106.624C222.16 106.624 222.097 106.735 222.073 106.79L221.858 107.097L221.415 107.739L220.529 109.023L219.643 110.279L219.031 111.064C218.674 111.513 218.33 111.961 217.958 112.37C216.487 114.091 214.856 115.668 213.087 117.08C211.332 118.514 209.441 119.773 207.442 120.84C205.457 121.925 203.374 122.818 201.22 123.506C196.892 124.91 192.343 125.511 187.799 125.279L187.018 125.316L186.641 125.333L185.868 125.261C185.352 125.204 184.837 125.174 184.32 125.077C183.293 124.939 182.275 124.748 181.268 124.503C179.483 123.914 177.754 123.168 176.101 122.273C174.525 121.492 173.012 120.592 171.573 119.581C170.138 118.543 168.796 117.381 167.563 116.108C166.193 114.824 165.038 113.328 164.143 111.677C163.694 110.725 163.757 110.344 164.148 110.326C164.956 110.288 167.035 112.015 169.703 113.646C171.75 114.877 173.886 115.956 176.092 116.872C177.696 117.504 179.349 118.001 181.036 118.357C181.718 118.501 182.29 118.622 182.711 118.67L183.35 118.762C184.183 118.953 185.038 119.048 185.881 119.184L187.237 119.297L187.547 119.282L188.167 119.253C188.638 119.231 189.101 119.304 189.519 119.298C191.398 119.292 193.274 119.137 195.128 118.835C196.969 118.501 198.78 118.019 200.543 117.394C202.302 116.736 204.003 115.934 205.63 114.997C207.239 114.038 208.765 112.946 210.191 111.732C211.591 110.507 212.884 109.164 214.055 107.718L214.768 106.807L214.684 106.729C211.629 103.415 207.899 100.795 203.745 99.0472C199.59 97.299 195.109 96.4632 190.604 96.5963C186.099 96.7294 181.675 97.8282 177.631 99.8186C173.587 101.809 170.018 104.644 167.165 108.133L167.212 108.279Z" fill="#1D1D1D"/>
<path d="M157.817 111.553C157.811 111.418 157.808 111.364 157.963 111.195C158.463 110.417 159.203 109.823 160.071 109.503C161.017 109.23 162.2 109.404 163.451 111.047C163.559 111.19 163.639 111.351 163.69 111.522L163.675 114.102C163.715 114.964 163.525 115.824 163.457 116.678L163.185 119.243C163.073 120.095 162.914 120.941 162.709 121.776C160.396 133.368 154.173 143.814 145.08 151.367C135.988 158.92 124.577 163.122 112.758 163.269C100.939 163.417 89.4271 159.502 80.1487 152.178C70.8703 144.855 64.3879 134.568 61.7859 123.038C59.1838 111.507 60.6199 99.4332 65.8539 88.8349C71.0879 78.2365 79.8024 69.7568 90.5397 64.8142C101.277 59.8716 113.386 58.7657 124.841 61.6817C136.296 64.5976 146.402 71.3585 153.469 80.8335L156.168 84.8397C156.695 85.7198 157.142 86.6172 157.64 87.4717C157.64 87.4717 157.895 87.9999 158.302 88.9127C158.709 89.8254 159.095 91.1577 159.611 92.6596C160.671 95.9692 161.285 99.4054 161.437 102.877C161.553 104.017 161.556 105.166 161.448 106.307C161.409 107.018 161.32 107.726 161.182 108.425C160.973 109.448 160.689 109.718 160.379 109.448C159.894 108.815 159.552 108.085 159.375 107.308C159.013 106.204 158.757 104.771 158.203 103.311C157.94 102.664 157.728 101.996 157.57 101.316L157.262 100.223C157.119 99.8512 156.965 99.4533 156.802 99.0288C156.48 98.2066 156.141 97.3177 155.8 96.3749C155.017 94.629 154.113 92.9157 153.446 91.6369L152.162 89.5903C151.767 88.8027 151.325 88.0387 150.841 87.3023L150.101 86.216L148.926 84.4749L146.162 81.0794C138.241 72.2927 127.221 66.9202 115.42 66.0919C109.581 65.6846 103.717 66.3838 98.1374 68.1529C89.7488 70.846 82.3135 75.8984 76.7207 82.7058C71.128 89.5133 67.6144 97.7876 66.6003 106.539C65.9471 112.357 66.3955 118.245 67.922 123.897C70.2652 132.395 75.0077 140.037 81.582 145.909C88.1562 151.782 96.2836 155.635 104.991 157.007C116.67 158.808 128.594 156.032 138.275 149.256C147.957 142.481 154.65 132.229 156.958 120.64C157.085 119.891 157.321 119.165 157.38 118.392L157.612 116.126C157.714 115.371 157.778 114.611 157.803 113.849L157.817 111.553Z" fill="#1D1D1D"/>
</svg>
